<svg width="113" height="113" viewBox="0 0 113 113" fill="none" xmlns="http://www.w3.org/2000/svg">
<circle cx="56.5" cy="56.5" r="56.5" fill="#00AFFF"/>
<path d="M83.625 47.75H80.1094C79.0547 45.4062 77.5312 43.4141 75.7734 41.6562L78 32.75H74.25C70.7344 32.75 67.6875 34.3906 65.6953 36.8516C64.7578 36.7344 63.8203 36.5 63 36.5H48C38.8594 36.5 31.3594 42.9453 29.6016 51.5H24.5625C22.8047 51.5 21.3984 49.9766 21.75 48.2188C21.9844 46.8125 23.2734 45.875 24.6797 45.875H24.7969C25.1484 45.875 25.5 45.6406 25.5 45.1719V42.8281C25.5 42.4766 25.1484 42.125 24.7969 42.125C21.3984 42.125 18.4688 44.5859 18 47.8672C17.5312 51.8516 20.5781 55.25 24.5625 55.25H29.25C29.25 61.4609 32.1797 66.8516 36.75 70.25V79.625C36.75 80.6797 37.5703 81.5 38.625 81.5H46.125C47.0625 81.5 48 80.6797 48 79.625V74H63V79.625C63 80.6797 63.8203 81.5 64.875 81.5H72.375C73.3125 81.5 74.25 80.6797 74.25 79.625V70.25C75.5391 69.1953 76.8281 67.9062 77.8828 66.5H83.625C84.5625 66.5 85.5 65.6797 85.5 64.625V49.625C85.5 48.6875 84.5625 47.75 83.625 47.75ZM68.625 55.25C67.5703 55.25 66.75 54.4297 66.75 53.375C66.75 52.4375 67.5703 51.5 68.625 51.5C69.5625 51.5 70.5 52.4375 70.5 53.375C70.5 54.4297 69.5625 55.25 68.625 55.25ZM48 32.75H63C63.5859 32.75 64.1719 32.8672 64.7578 32.8672C64.7578 32.8672 64.875 32.8672 64.875 32.75C64.875 26.5391 59.8359 21.5 53.625 21.5C47.4141 21.5 42.375 26.5391 42.375 32.75C42.375 33.1016 42.375 33.3359 42.375 33.5703C44.1328 33.1016 46.0078 32.75 48 32.75Z" fill="white"/>
</svg>
