<svg width="113" height="113" viewBox="0 0 113 113" fill="none" xmlns="http://www.w3.org/2000/svg">
<circle cx="56.5" cy="56.5" r="56.5" fill="#00AFFF"/>
<path d="M74.4513 37.7433H36.9513C26.5216 37.7433 18.2013 46.1808 18.2013 56.4933C18.2013 66.923 26.5216 75.2433 36.9513 75.2433C42.1075 75.2433 46.9122 73.1339 50.3107 69.6183H60.9747C64.3732 73.1339 69.1779 75.3605 74.4513 75.3605C84.7638 75.3605 93.2013 66.923 93.2013 56.6105C93.2013 46.1808 84.7638 37.8605 74.4513 37.7433ZM47.2638 57.8995C47.2638 58.7198 46.5607 59.3058 45.8575 59.3058H39.7638V65.3995C39.7638 66.2198 39.0607 66.8058 38.3575 66.8058H35.545C34.7247 66.8058 34.1388 66.2198 34.1388 65.3995V59.3058H28.045C27.2247 59.3058 26.6388 58.7198 26.6388 57.8995V55.087C26.6388 54.3839 27.2247 53.6808 28.045 53.6808H34.1388V47.587C34.1388 46.8839 34.7247 46.1808 35.545 46.1808H38.3575C39.0607 46.1808 39.7638 46.8839 39.7638 47.587V53.6808H45.8575C46.5607 53.6808 47.2638 54.3839 47.2638 55.087V57.8995ZM72.5763 66.8058C69.881 66.8058 67.8888 64.8136 67.8888 62.1183C67.8888 59.5402 69.881 57.4308 72.5763 57.4308C75.1544 57.4308 77.2638 59.5402 77.2638 62.1183C77.2638 64.8136 75.1544 66.8058 72.5763 66.8058ZM80.0763 55.5558C77.381 55.5558 75.3888 53.5636 75.3888 50.8683C75.3888 48.2902 77.381 46.1808 80.0763 46.1808C82.6544 46.1808 84.7638 48.2902 84.7638 50.8683C84.7638 53.5636 82.6544 55.5558 80.0763 55.5558Z" fill="white"/>
</svg>
