<?xml version="1.0" standalone="no"?>
<!DOCTYPE svg PUBLIC "-//W3C//DTD SVG 20010904//EN"
 "http://www.w3.org/TR/2001/REC-SVG-20010904/DTD/svg10.dtd">
<svg version="1.0" xmlns="http://www.w3.org/2000/svg"
 width="225.000000pt" height="225.000000pt" viewBox="0 0 225.000000 225.000000"
 preserveAspectRatio="xMidYMid meet">

<g transform="translate(0.000000,225.000000) scale(0.100000,-0.100000)"
fill="#000000" stroke="none">
<path d="M762 2235 c-129 -40 -202 -155 -202 -316 l0 -49 -77 0 c-122 0 -211
-52 -266 -154 l-22 -41 -3 -719 c-3 -801 -5 -774 64 -855 20 -23 59 -54 88
-69 l51 -27 540 0 c529 0 541 0 586 21 102 47 157 136 166 268 l6 86 76 0
c120 0 210 52 264 154 22 40 22 48 25 520 l3 480 -358 358 -358 358 -270 -1
c-197 0 -282 -4 -313 -14z m458 -378 c0 -238 8 -280 71 -351 77 -87 90 -91
357 -94 l233 -3 -3 -395 -3 -396 -33 -29 -33 -30 -505 3 -506 3 -24 28 -24 28
0 689 0 688 26 31 26 31 209 0 209 0 0 -203z m395 -265 c-198 -4 -215 13 -215
218 l0 125 170 -170 170 -170 -125 -3z m-1053 -449 c3 -548 3 -548 26 -598 28
-61 62 -98 122 -133 l45 -27 373 -3 372 -3 0 -64 c0 -54 -4 -68 -26 -94 l-26
-31 -507 0 c-552 0 -535 -2 -560 57 -8 21 -11 210 -9 706 l3 679 33 29 c28 25
40 29 92 29 l59 0 3 -547z"/>
</g>
</svg>
