<svg width="113" height="113" viewBox="0 0 113 113" fill="none" xmlns="http://www.w3.org/2000/svg">
<circle cx="56.5" cy="56.5" r="56.5" fill="#00AFFF"/>
<path d="M92.8906 43.5469L60.1953 33.4688C58.4375 32.8828 56.4453 32.8828 54.6875 33.4688L21.9922 43.5469C19.2969 44.3672 19.2969 48 21.9922 48.8203L27.7344 50.5781C26.4453 52.1016 25.7422 54.0938 25.625 56.0859C24.4531 56.7891 23.75 57.9609 23.75 59.25C23.75 60.5391 24.3359 61.5938 25.2734 62.2969L22.3438 75.7734C22.1094 76.9453 22.9297 78 24.1016 78H30.7812C31.9531 78 32.7734 76.9453 32.5391 75.7734L29.6094 62.2969C30.5469 61.5938 31.25 60.5391 31.25 59.25C31.25 57.9609 30.4297 56.7891 29.375 56.2031C29.4922 54.4453 30.3125 52.8047 31.8359 51.8672L54.6875 58.8984C55.7422 59.25 57.8516 59.6016 60.1953 58.8984L92.8906 48.8203C95.5859 48 95.5859 44.3672 92.8906 43.5469ZM61.25 62.5312C57.9688 63.4688 55.0391 63 53.6328 62.5312L36.6406 57.2578L35 70.5C35 74.7188 44.9609 78 57.5 78C69.9219 78 80 74.7188 80 70.5L78.2422 57.2578L61.25 62.5312Z" fill="white"/>
</svg>
