<?xml version="1.0" encoding="utf-8"?>
<!-- Generator: Adobe Illustrator 16.0.0, SVG Export Plug-In . SVG Version: 6.00 Build 0)  -->
<!DOCTYPE svg PUBLIC "-//W3C//DTD SVG 1.0//EN" "http://www.w3.org/TR/2001/REC-SVG-20010904/DTD/svg10.dtd">
<svg version="1.0" xmlns="http://www.w3.org/2000/svg" xmlns:xlink="http://www.w3.org/1999/xlink" x="0px" y="0px" width="850px"
	 height="600px" viewBox="0 0 850 600" enable-background="new 0 0 850 600" xml:space="preserve">
<g id="logo">
	<g>
		<g>
			<g>
				<path fill="#FFFFFF" d="M343.91,343.219c-4.65,10.757-8.975,20.889-12.243,29.339c-10.237,26.476-16.229,52.421-10.211,84.21
					c4.239-10.379,10.622-22.725,20.166-35.637C337.15,400.111,336.923,372.344,343.91,343.219z"/>
			</g>
			<g>
				<g>
					<path fill="#FFFFFF" d="M541.97,325.631c-0.981-56.824-16.23-98.273-16.23-98.273s-9.865-32.896-39.001-58.74
						c-29.134-25.845-87.404-31.955-117.009-18.327c-12.694,5.842-19.934,12.634-24.076,18.489
						c-4.284,1.246-31.777,10.366-36.542,40.249c-5.17,32.424,9.868,42.763,9.868,42.763s-2.35-9.868,2.349-16.917
						c4.699-7.049,22.086-11.278,27.255-13.626c0.315-0.143,0.682-0.208,1.091-0.202C506.251,206.715,541.97,325.631,541.97,325.631
						z M366.222,172.572c0,0,4.876,2.661,17.288-3.102c12.412-5.763,19.726-11.083,32.582-9.752c0,0-12.04,0.821-19.493,10.372
						c0,0,2.537,8.331-5.442,10.991c-7.979,2.659-12.522-4.962-12.522-4.962S373.314,179,366.222,172.572z"/>
				</g>
			</g>
			<g>
				<path fill="#FFFFFF" d="M378.256,229.988c28.772,10.42,77.93,39.255,98.063,116.994c13.242-0.909,25.203-1.097,35.589-2.985
					C485.166,262.783,417.212,237.713,378.256,229.988z"/>
			</g>
			<g>
				<path fill="#FFFFFF" d="M367.365,339.435c-6.881,21.334-9.113,42.272-8.577,61.724c7.299-7.347,15.77-14.647,25.566-21.659
					c7.23-34.904,12.479-83.606-3.688-117.147C381.94,277.665,379.467,301.915,367.365,339.435z"/>
			</g>
			<g>
				<path fill="#FFFFFF" d="M376.555,240.016c14.673,15.674,39.544,52.655,37.391,121.728c9.363-4.441,18.443-7.518,27.18-9.682
					C435.77,313.198,420.055,264.234,376.555,240.016z"/>
			</g>
		</g>
	</g>
</g>
</svg>
