<svg width="563" height="1022" viewBox="0 0 563 1022" fill="none" xmlns="http://www.w3.org/2000/svg">
<path d="M45.1656 584.067C44.5662 567.21 45.6968 552.414 46.9091 537.659C49.2247 509.145 52.5482 480.713 58.9638 452.896C69.0979 408.986 80.4171 365.212 104.935 326.748C126.634 292.734 152.963 262.91 188.76 242.859C216.738 227.189 247.085 218.726 278.659 214.195C305.411 210.387 332.313 209.608 359.16 213.922C393.785 219.586 424.474 232.922 447.493 260.562C451.362 265.203 456.783 266.022 461.619 268.11C487.689 279.739 508.911 296.965 519.018 324.264C530.296 354.852 534.424 386.287 520.966 417.68C517.574 425.597 513.529 429.965 507.236 433.596C505.983 431.917 506.95 430.115 507.045 428.409C508.23 408.058 501.896 397.384 483.807 388.129C458.772 375.326 432.17 369.976 404.205 369.361C367.687 368.57 331.264 369.293 295.114 374.821C234.908 384.048 179.334 404.413 132.681 445.034C101.353 472.333 78.1151 505.596 61.3747 543.46C55.722 556.167 51.0227 569.271 45.1656 584.067ZM311.445 245.438C316.909 246.811 322.168 248.904 327.083 251.662C336.209 257.231 346.534 261.968 344.204 275.999C343.442 280.531 346.561 284.271 350.32 286.673C358.289 291.778 371.964 293.498 379.619 283.029C381.09 281.036 382.507 279.316 385.749 280.203C392.927 282.169 398.743 279.016 404.696 274.225C399.642 273.16 395.161 273.529 390.789 272.287C377.167 268.451 364.908 261.831 352.309 255.812C339.423 249.67 326.347 244.073 311.445 245.438Z" fill="white" fill-opacity="0.2"/>
<path d="M372.673 393.555C362.416 400.271 347.392 405.84 333.703 414.029C275.132 449.204 233.669 499.284 205.419 561.047C195.685 582.699 187.696 605.096 181.527 628.025C180.451 631.888 178.912 633.348 175.044 632.939C154.108 630.755 132.968 631.137 112.073 628.025C106.734 627.234 107.02 624.463 108.273 620.955C118.666 591.663 131.946 563.777 149.436 538.021C193.446 473.186 254.319 431.05 327.505 405.539C343.306 400.025 359.501 395.234 372.673 393.555Z" fill="white" fill-opacity="0.2"/>
<path d="M377.359 461.789C376.855 499.011 382.685 534.131 391.457 569.074C398.036 595.185 407.693 620.395 413.659 646.643C421.02 678.651 424.108 711.496 422.84 744.319C417.187 739.227 412.215 734.846 407.366 730.342C397.153 720.796 386.304 711.959 374.893 703.889C373.299 702.834 371.939 701.463 370.896 699.859C369.853 698.255 369.151 696.454 368.832 694.566C361.94 658.204 357.036 621.597 356.096 584.552C355.143 546.702 358.425 509.357 371.311 473.377C372.374 470.415 373.654 467.522 374.948 464.655C375.654 463.622 376.462 462.661 377.359 461.789Z" fill="white" fill-opacity="0.2"/>
<path d="M381.323 414.889C322.874 487.654 307.891 572.745 308.667 663.09C295.455 657.753 283.101 652.335 270.174 648.472C268.662 648.008 267.164 647.489 265.665 647.107C250.328 642.493 252.576 646.247 254.891 631.355C261.933 585.903 274.928 542.252 297.784 502C317.385 467.453 343.129 438.666 376.787 417.373C378.285 416.404 379.838 415.708 381.323 414.889Z" fill="white" fill-opacity="0.2"/>
<path d="M455.912 631.369C464.888 649.113 472.176 667.486 479.368 685.899C490.687 714.808 499.799 744.441 503.3 775.425C506.628 802.901 505.792 830.724 500.821 857.95C497.034 854.838 496.176 850.756 494.637 847.33C485.723 827.816 474.925 809.224 462.396 791.818C461.115 790.144 460.224 788.203 459.791 786.139C459.357 784.074 459.391 781.938 459.889 779.889C466.332 744.605 466.536 709.13 462.464 673.573C460.843 659.405 458.35 645.401 455.912 631.369Z" fill="white" fill-opacity="0.2"/>
<path d="M8 0H1059V1022H8V0Z" fill="#00AFFF" fill-opacity="0.2"/>
<rect y="1022" width="1022" height="361" transform="rotate(-90 0 1022)" fill="url(#paint0_linear_194_168)"/>
<defs>
<linearGradient id="paint0_linear_194_168" x1="511" y1="1022" x2="511" y2="1383" gradientUnits="userSpaceOnUse">
<stop stop-color="#00334A"/>
<stop offset="1" stop-color="#00334A" stop-opacity="0"/>
</linearGradient>
</defs>
</svg>
