<svg width="1039" height="550" viewBox="0 0 1039 550" fill="none" xmlns="http://www.w3.org/2000/svg">
<line x1="738" y1="184.5" x2="799" y2="184.5" stroke="#DFDFDF" stroke-width="5"/>
<line x1="796.5" y1="455" x2="796.5" y2="182" stroke="#DFDFDF" stroke-width="5"/>
<rect x="1.5" y="277.5" width="183" height="45" fill="#FAFAFA" stroke="#DFDFDF" stroke-width="3"/>
<path d="M51.7 292.8H46.1V289.5H61.35V292.8H55.75V307H51.7V292.8ZM62.9611 293.55H66.8611V307H62.9611V293.55ZM64.9111 291.675C64.1945 291.675 63.6111 291.467 63.1611 291.05C62.7111 290.633 62.4861 290.117 62.4861 289.5C62.4861 288.883 62.7111 288.367 63.1611 287.95C63.6111 287.533 64.1945 287.325 64.9111 287.325C65.6278 287.325 66.2111 287.525 66.6611 287.925C67.1111 288.325 67.3361 288.825 67.3361 289.425C67.3361 290.075 67.1111 290.617 66.6611 291.05C66.2111 291.467 65.6278 291.675 64.9111 291.675ZM87.7057 293.35C89.389 293.35 90.7223 293.85 91.7057 294.85C92.7057 295.833 93.2057 297.317 93.2057 299.3V307H89.3057V299.9C89.3057 298.833 89.0807 298.042 88.6307 297.525C88.1973 296.992 87.5723 296.725 86.7557 296.725C85.839 296.725 85.114 297.025 84.5807 297.625C84.0473 298.208 83.7807 299.083 83.7807 300.25V307H79.8807V299.9C79.8807 297.783 79.0307 296.725 77.3307 296.725C76.4307 296.725 75.714 297.025 75.1807 297.625C74.6473 298.208 74.3807 299.083 74.3807 300.25V307H70.4807V293.55H74.2057V295.1C74.7057 294.533 75.314 294.1 76.0307 293.8C76.764 293.5 77.564 293.35 78.4307 293.35C79.3807 293.35 80.239 293.542 81.0057 293.925C81.7723 294.292 82.389 294.833 82.8557 295.55C83.4057 294.85 84.0973 294.308 84.9307 293.925C85.7807 293.542 86.7057 293.35 87.7057 293.35ZM110.023 300.325C110.023 300.375 109.998 300.725 109.948 301.375H99.7729C99.9562 302.208 100.39 302.867 101.073 303.35C101.756 303.833 102.606 304.075 103.623 304.075C104.323 304.075 104.94 303.975 105.473 303.775C106.023 303.558 106.531 303.225 106.998 302.775L109.073 305.025C107.806 306.475 105.956 307.2 103.523 307.2C102.006 307.2 100.665 306.908 99.4979 306.325C98.3312 305.725 97.4312 304.9 96.7979 303.85C96.1645 302.8 95.8479 301.608 95.8479 300.275C95.8479 298.958 96.1562 297.775 96.7729 296.725C97.4062 295.658 98.2645 294.833 99.3479 294.25C100.448 293.65 101.673 293.35 103.023 293.35C104.34 293.35 105.531 293.633 106.598 294.2C107.665 294.767 108.498 295.583 109.098 296.65C109.715 297.7 110.023 298.925 110.023 300.325ZM103.048 296.3C102.165 296.3 101.423 296.55 100.823 297.05C100.223 297.55 99.8562 298.233 99.7229 299.1H106.348C106.215 298.25 105.848 297.575 105.248 297.075C104.648 296.558 103.915 296.3 103.048 296.3ZM134.899 303.325H132.049V307H128.099V303.325H118.674V300.6L126.924 289.5H131.174L123.524 300.025H128.224V296.75H132.049V300.025H134.899V303.325Z" fill="#00334A"/>
<rect x="1.5" y="201.5" width="183" height="45" fill="#FAFAFA" stroke="#DFDFDF" stroke-width="3"/>
<path d="M51.7 216.8H46.1V213.5H61.35V216.8H55.75V231H51.7V216.8ZM62.9611 217.55H66.8611V231H62.9611V217.55ZM64.9111 215.675C64.1945 215.675 63.6111 215.467 63.1611 215.05C62.7111 214.633 62.4861 214.117 62.4861 213.5C62.4861 212.883 62.7111 212.367 63.1611 211.95C63.6111 211.533 64.1945 211.325 64.9111 211.325C65.6278 211.325 66.2111 211.525 66.6611 211.925C67.1111 212.325 67.3361 212.825 67.3361 213.425C67.3361 214.075 67.1111 214.617 66.6611 215.05C66.2111 215.467 65.6278 215.675 64.9111 215.675ZM87.7057 217.35C89.389 217.35 90.7223 217.85 91.7057 218.85C92.7057 219.833 93.2057 221.317 93.2057 223.3V231H89.3057V223.9C89.3057 222.833 89.0807 222.042 88.6307 221.525C88.1973 220.992 87.5723 220.725 86.7557 220.725C85.839 220.725 85.114 221.025 84.5807 221.625C84.0473 222.208 83.7807 223.083 83.7807 224.25V231H79.8807V223.9C79.8807 221.783 79.0307 220.725 77.3307 220.725C76.4307 220.725 75.714 221.025 75.1807 221.625C74.6473 222.208 74.3807 223.083 74.3807 224.25V231H70.4807V217.55H74.2057V219.1C74.7057 218.533 75.314 218.1 76.0307 217.8C76.764 217.5 77.564 217.35 78.4307 217.35C79.3807 217.35 80.239 217.542 81.0057 217.925C81.7723 218.292 82.389 218.833 82.8557 219.55C83.4057 218.85 84.0973 218.308 84.9307 217.925C85.7807 217.542 86.7057 217.35 87.7057 217.35ZM110.023 224.325C110.023 224.375 109.998 224.725 109.948 225.375H99.7729C99.9562 226.208 100.39 226.867 101.073 227.35C101.756 227.833 102.606 228.075 103.623 228.075C104.323 228.075 104.94 227.975 105.473 227.775C106.023 227.558 106.531 227.225 106.998 226.775L109.073 229.025C107.806 230.475 105.956 231.2 103.523 231.2C102.006 231.2 100.665 230.908 99.4979 230.325C98.3312 229.725 97.4312 228.9 96.7979 227.85C96.1645 226.8 95.8479 225.608 95.8479 224.275C95.8479 222.958 96.1562 221.775 96.7729 220.725C97.4062 219.658 98.2645 218.833 99.3479 218.25C100.448 217.65 101.673 217.35 103.023 217.35C104.34 217.35 105.531 217.633 106.598 218.2C107.665 218.767 108.498 219.583 109.098 220.65C109.715 221.7 110.023 222.925 110.023 224.325ZM103.048 220.3C102.165 220.3 101.423 220.55 100.823 221.05C100.223 221.55 99.8562 222.233 99.7229 223.1H106.348C106.215 222.25 105.848 221.575 105.248 221.075C104.648 220.558 103.915 220.3 103.048 220.3ZM127.049 220.625C128.583 220.875 129.758 221.45 130.574 222.35C131.391 223.233 131.799 224.333 131.799 225.65C131.799 226.667 131.533 227.608 130.999 228.475C130.466 229.325 129.649 230.008 128.549 230.525C127.466 231.042 126.133 231.3 124.549 231.3C123.316 231.3 122.099 231.142 120.899 230.825C119.716 230.492 118.708 230.025 117.874 229.425L119.449 226.325C120.116 226.825 120.883 227.217 121.749 227.5C122.633 227.767 123.533 227.9 124.449 227.9C125.466 227.9 126.266 227.708 126.849 227.325C127.433 226.925 127.724 226.367 127.724 225.65C127.724 224.217 126.633 223.5 124.449 223.5H122.599V220.825L126.199 216.75H118.749V213.5H130.999V216.125L127.049 220.625Z" fill="#00334A"/>
<rect x="1.5" y="125.5" width="183" height="45" fill="#FAFAFA" stroke="#DFDFDF" stroke-width="3"/>
<path d="M51.7 141.8H46.1V138.5H61.35V141.8H55.75V156H51.7V141.8ZM62.9611 142.55H66.8611V156H62.9611V142.55ZM64.9111 140.675C64.1945 140.675 63.6111 140.467 63.1611 140.05C62.7111 139.633 62.4861 139.117 62.4861 138.5C62.4861 137.883 62.7111 137.367 63.1611 136.95C63.6111 136.533 64.1945 136.325 64.9111 136.325C65.6278 136.325 66.2111 136.525 66.6611 136.925C67.1111 137.325 67.3361 137.825 67.3361 138.425C67.3361 139.075 67.1111 139.617 66.6611 140.05C66.2111 140.467 65.6278 140.675 64.9111 140.675ZM87.7057 142.35C89.389 142.35 90.7223 142.85 91.7057 143.85C92.7057 144.833 93.2057 146.317 93.2057 148.3V156H89.3057V148.9C89.3057 147.833 89.0807 147.042 88.6307 146.525C88.1973 145.992 87.5723 145.725 86.7557 145.725C85.839 145.725 85.114 146.025 84.5807 146.625C84.0473 147.208 83.7807 148.083 83.7807 149.25V156H79.8807V148.9C79.8807 146.783 79.0307 145.725 77.3307 145.725C76.4307 145.725 75.714 146.025 75.1807 146.625C74.6473 147.208 74.3807 148.083 74.3807 149.25V156H70.4807V142.55H74.2057V144.1C74.7057 143.533 75.314 143.1 76.0307 142.8C76.764 142.5 77.564 142.35 78.4307 142.35C79.3807 142.35 80.239 142.542 81.0057 142.925C81.7723 143.292 82.389 143.833 82.8557 144.55C83.4057 143.85 84.0973 143.308 84.9307 142.925C85.7807 142.542 86.7057 142.35 87.7057 142.35ZM110.023 149.325C110.023 149.375 109.998 149.725 109.948 150.375H99.7729C99.9562 151.208 100.39 151.867 101.073 152.35C101.756 152.833 102.606 153.075 103.623 153.075C104.323 153.075 104.94 152.975 105.473 152.775C106.023 152.558 106.531 152.225 106.998 151.775L109.073 154.025C107.806 155.475 105.956 156.2 103.523 156.2C102.006 156.2 100.665 155.908 99.4979 155.325C98.3312 154.725 97.4312 153.9 96.7979 152.85C96.1645 151.8 95.8479 150.608 95.8479 149.275C95.8479 147.958 96.1562 146.775 96.7729 145.725C97.4062 144.658 98.2645 143.833 99.3479 143.25C100.448 142.65 101.673 142.35 103.023 142.35C104.34 142.35 105.531 142.633 106.598 143.2C107.665 143.767 108.498 144.583 109.098 145.65C109.715 146.7 110.023 147.925 110.023 149.325ZM103.048 145.3C102.165 145.3 101.423 145.55 100.823 146.05C100.223 146.55 99.8562 147.233 99.7229 148.1H106.348C106.215 147.25 105.848 146.575 105.248 146.075C104.648 145.558 103.915 145.3 103.048 145.3ZM131.949 152.7V156H118.724V153.375L125.474 147C126.191 146.317 126.674 145.733 126.924 145.25C127.174 144.75 127.299 144.258 127.299 143.775C127.299 143.075 127.058 142.542 126.574 142.175C126.108 141.792 125.416 141.6 124.499 141.6C123.733 141.6 123.041 141.75 122.424 142.05C121.808 142.333 121.291 142.767 120.874 143.35L117.924 141.45C118.608 140.433 119.549 139.642 120.749 139.075C121.949 138.492 123.324 138.2 124.874 138.2C126.174 138.2 127.308 138.417 128.274 138.85C129.258 139.267 130.016 139.867 130.549 140.65C131.099 141.417 131.374 142.325 131.374 143.375C131.374 144.325 131.174 145.217 130.774 146.05C130.374 146.883 129.599 147.833 128.449 148.9L124.424 152.7H131.949Z" fill="#00334A"/>
<rect x="1.5" y="49.5" width="183" height="45" fill="#FAFAFA" stroke="#DFDFDF" stroke-width="3"/>
<path d="M51.7 65.8H46.1V62.5H61.35V65.8H55.75V80H51.7V65.8ZM62.9611 66.55H66.8611V80H62.9611V66.55ZM64.9111 64.675C64.1945 64.675 63.6111 64.4667 63.1611 64.05C62.7111 63.6333 62.4861 63.1167 62.4861 62.5C62.4861 61.8833 62.7111 61.3667 63.1611 60.95C63.6111 60.5333 64.1945 60.325 64.9111 60.325C65.6278 60.325 66.2111 60.525 66.6611 60.925C67.1111 61.325 67.3361 61.825 67.3361 62.425C67.3361 63.075 67.1111 63.6167 66.6611 64.05C66.2111 64.4667 65.6278 64.675 64.9111 64.675ZM87.7057 66.35C89.389 66.35 90.7223 66.85 91.7057 67.85C92.7057 68.8333 93.2057 70.3167 93.2057 72.3V80H89.3057V72.9C89.3057 71.8333 89.0807 71.0417 88.6307 70.525C88.1973 69.9917 87.5723 69.725 86.7557 69.725C85.839 69.725 85.114 70.025 84.5807 70.625C84.0473 71.2083 83.7807 72.0833 83.7807 73.25V80H79.8807V72.9C79.8807 70.7833 79.0307 69.725 77.3307 69.725C76.4307 69.725 75.714 70.025 75.1807 70.625C74.6473 71.2083 74.3807 72.0833 74.3807 73.25V80H70.4807V66.55H74.2057V68.1C74.7057 67.5333 75.314 67.1 76.0307 66.8C76.764 66.5 77.564 66.35 78.4307 66.35C79.3807 66.35 80.239 66.5417 81.0057 66.925C81.7723 67.2917 82.389 67.8333 82.8557 68.55C83.4057 67.85 84.0973 67.3083 84.9307 66.925C85.7807 66.5417 86.7057 66.35 87.7057 66.35ZM110.023 73.325C110.023 73.375 109.998 73.725 109.948 74.375H99.7729C99.9562 75.2083 100.39 75.8667 101.073 76.35C101.756 76.8333 102.606 77.075 103.623 77.075C104.323 77.075 104.94 76.975 105.473 76.775C106.023 76.5583 106.531 76.225 106.998 75.775L109.073 78.025C107.806 79.475 105.956 80.2 103.523 80.2C102.006 80.2 100.665 79.9083 99.4979 79.325C98.3312 78.725 97.4312 77.9 96.7979 76.85C96.1645 75.8 95.8479 74.6083 95.8479 73.275C95.8479 71.9583 96.1562 70.775 96.7729 69.725C97.4062 68.6583 98.2645 67.8333 99.3479 67.25C100.448 66.65 101.673 66.35 103.023 66.35C104.34 66.35 105.531 66.6333 106.598 67.2C107.665 67.7667 108.498 68.5833 109.098 69.65C109.715 70.7 110.023 71.925 110.023 73.325ZM103.048 69.3C102.165 69.3 101.423 69.55 100.823 70.05C100.223 70.55 99.8562 71.2333 99.7229 72.1H106.348C106.215 71.25 105.848 70.575 105.248 70.075C104.648 69.5583 103.915 69.3 103.048 69.3ZM125.624 62.5V80H121.574V65.75H118.074V62.5H125.624Z" fill="#00334A"/>
<rect x="288.5" y="240.5" width="183" height="45" fill="#FAFAFA" stroke="#DFDFDF" stroke-width="3"/>
<path d="M327.9 254.5L320.325 272H316.325L308.775 254.5H313.15L318.475 267L323.875 254.5H327.9ZM341.26 265.325C341.26 265.375 341.235 265.725 341.185 266.375H331.01C331.193 267.208 331.627 267.867 332.31 268.35C332.993 268.833 333.843 269.075 334.86 269.075C335.56 269.075 336.177 268.975 336.71 268.775C337.26 268.558 337.768 268.225 338.235 267.775L340.31 270.025C339.043 271.475 337.193 272.2 334.76 272.2C333.243 272.2 331.902 271.908 330.735 271.325C329.568 270.725 328.668 269.9 328.035 268.85C327.402 267.8 327.085 266.608 327.085 265.275C327.085 263.958 327.393 262.775 328.01 261.725C328.643 260.658 329.502 259.833 330.585 259.25C331.685 258.65 332.91 258.35 334.26 258.35C335.577 258.35 336.768 258.633 337.835 259.2C338.902 259.767 339.735 260.583 340.335 261.65C340.952 262.7 341.26 263.925 341.26 265.325ZM334.285 261.3C333.402 261.3 332.66 261.55 332.06 262.05C331.46 262.55 331.093 263.233 330.96 264.1H337.585C337.452 263.25 337.085 262.575 336.485 262.075C335.885 261.558 335.152 261.3 334.285 261.3ZM352.032 258.35C353.698 258.35 355.04 258.85 356.057 259.85C357.09 260.85 357.607 262.333 357.607 264.3V272H353.707V264.9C353.707 263.833 353.473 263.042 353.007 262.525C352.54 261.992 351.865 261.725 350.982 261.725C349.998 261.725 349.215 262.033 348.632 262.65C348.048 263.25 347.757 264.15 347.757 265.35V272H343.857V258.55H347.582V260.125C348.098 259.558 348.74 259.125 349.507 258.825C350.273 258.508 351.115 258.35 352.032 258.35ZM367.788 272.2C366.355 272.2 365.063 271.908 363.913 271.325C362.78 270.725 361.888 269.9 361.238 268.85C360.605 267.8 360.288 266.608 360.288 265.275C360.288 263.942 360.605 262.75 361.238 261.7C361.888 260.65 362.78 259.833 363.913 259.25C365.063 258.65 366.355 258.35 367.788 258.35C369.205 258.35 370.438 258.65 371.488 259.25C372.555 259.833 373.33 260.675 373.813 261.775L370.788 263.4C370.088 262.167 369.08 261.55 367.763 261.55C366.747 261.55 365.905 261.883 365.238 262.55C364.572 263.217 364.238 264.125 364.238 265.275C364.238 266.425 364.572 267.333 365.238 268C365.905 268.667 366.747 269 367.763 269C369.097 269 370.105 268.383 370.788 267.15L373.813 268.8C373.33 269.867 372.555 270.7 371.488 271.3C370.438 271.9 369.205 272.2 367.788 272.2ZM389.063 265.325C389.063 265.375 389.038 265.725 388.988 266.375H378.813C378.996 267.208 379.43 267.867 380.113 268.35C380.796 268.833 381.646 269.075 382.663 269.075C383.363 269.075 383.98 268.975 384.513 268.775C385.063 268.558 385.571 268.225 386.038 267.775L388.113 270.025C386.846 271.475 384.996 272.2 382.563 272.2C381.046 272.2 379.705 271.908 378.538 271.325C377.371 270.725 376.471 269.9 375.838 268.85C375.205 267.8 374.888 266.608 374.888 265.275C374.888 263.958 375.196 262.775 375.813 261.725C376.446 260.658 377.305 259.833 378.388 259.25C379.488 258.65 380.713 258.35 382.063 258.35C383.38 258.35 384.571 258.633 385.638 259.2C386.705 259.767 387.538 260.583 388.138 261.65C388.755 262.7 389.063 263.925 389.063 265.325ZM382.088 261.3C381.205 261.3 380.463 261.55 379.863 262.05C379.263 262.55 378.896 263.233 378.763 264.1H385.388C385.255 263.25 384.888 262.575 384.288 262.075C383.688 261.558 382.955 261.3 382.088 261.3ZM405.359 253.45V272H401.634V270.45C400.668 271.617 399.268 272.2 397.434 272.2C396.168 272.2 395.018 271.917 393.984 271.35C392.968 270.783 392.168 269.975 391.584 268.925C391.001 267.875 390.709 266.658 390.709 265.275C390.709 263.892 391.001 262.675 391.584 261.625C392.168 260.575 392.968 259.767 393.984 259.2C395.018 258.633 396.168 258.35 397.434 258.35C399.151 258.35 400.493 258.892 401.459 259.975V253.45H405.359ZM398.109 269C399.093 269 399.909 268.667 400.559 268C401.209 267.317 401.534 266.408 401.534 265.275C401.534 264.142 401.209 263.242 400.559 262.575C399.909 261.892 399.093 261.55 398.109 261.55C397.109 261.55 396.284 261.892 395.634 262.575C394.984 263.242 394.659 264.142 394.659 265.275C394.659 266.408 394.984 267.317 395.634 268C396.284 268.667 397.109 269 398.109 269ZM415.369 272.2C413.952 272.2 412.677 271.908 411.544 271.325C410.427 270.725 409.552 269.9 408.919 268.85C408.286 267.8 407.969 266.608 407.969 265.275C407.969 263.942 408.286 262.75 408.919 261.7C409.552 260.65 410.427 259.833 411.544 259.25C412.677 258.65 413.952 258.35 415.369 258.35C416.786 258.35 418.052 258.65 419.169 259.25C420.286 259.833 421.161 260.65 421.794 261.7C422.427 262.75 422.744 263.942 422.744 265.275C422.744 266.608 422.427 267.8 421.794 268.85C421.161 269.9 420.286 270.725 419.169 271.325C418.052 271.908 416.786 272.2 415.369 272.2ZM415.369 269C416.369 269 417.186 268.667 417.819 268C418.469 267.317 418.794 266.408 418.794 265.275C418.794 264.142 418.469 263.242 417.819 262.575C417.186 261.892 416.369 261.55 415.369 261.55C414.369 261.55 413.544 261.892 412.894 262.575C412.244 263.242 411.919 264.142 411.919 265.275C411.919 266.408 412.244 267.317 412.894 268C413.544 268.667 414.369 269 415.369 269ZM429.076 260.325C429.542 259.675 430.167 259.183 430.951 258.85C431.751 258.517 432.667 258.35 433.701 258.35V261.95C433.267 261.917 432.976 261.9 432.826 261.9C431.709 261.9 430.834 262.217 430.201 262.85C429.567 263.467 429.251 264.4 429.251 265.65V272H425.351V258.55H429.076V260.325ZM455.447 268.7V272H442.222V269.375L448.972 263C449.689 262.317 450.172 261.733 450.422 261.25C450.672 260.75 450.797 260.258 450.797 259.775C450.797 259.075 450.556 258.542 450.072 258.175C449.606 257.792 448.914 257.6 447.997 257.6C447.231 257.6 446.539 257.75 445.922 258.05C445.306 258.333 444.789 258.767 444.372 259.35L441.422 257.45C442.106 256.433 443.047 255.642 444.247 255.075C445.447 254.492 446.822 254.2 448.372 254.2C449.672 254.2 450.806 254.417 451.772 254.85C452.756 255.267 453.514 255.867 454.047 256.65C454.597 257.417 454.872 258.325 454.872 259.375C454.872 260.325 454.672 261.217 454.272 262.05C453.872 262.883 453.097 263.833 451.947 264.9L447.922 268.7H455.447Z" fill="#00334A"/>
<rect x="288.5" y="91.5" width="183" height="45" fill="#FAFAFA" stroke="#DFDFDF" stroke-width="3"/>
<path d="M326.9 105.5L319.325 123H315.325L307.775 105.5H312.15L317.475 118L322.875 105.5H326.9ZM340.26 116.325C340.26 116.375 340.235 116.725 340.185 117.375H330.01C330.193 118.208 330.627 118.867 331.31 119.35C331.993 119.833 332.843 120.075 333.86 120.075C334.56 120.075 335.177 119.975 335.71 119.775C336.26 119.558 336.768 119.225 337.235 118.775L339.31 121.025C338.043 122.475 336.193 123.2 333.76 123.2C332.243 123.2 330.902 122.908 329.735 122.325C328.568 121.725 327.668 120.9 327.035 119.85C326.402 118.8 326.085 117.608 326.085 116.275C326.085 114.958 326.393 113.775 327.01 112.725C327.643 111.658 328.502 110.833 329.585 110.25C330.685 109.65 331.91 109.35 333.26 109.35C334.577 109.35 335.768 109.633 336.835 110.2C337.902 110.767 338.735 111.583 339.335 112.65C339.952 113.7 340.26 114.925 340.26 116.325ZM333.285 112.3C332.402 112.3 331.66 112.55 331.06 113.05C330.46 113.55 330.093 114.233 329.96 115.1H336.585C336.452 114.25 336.085 113.575 335.485 113.075C334.885 112.558 334.152 112.3 333.285 112.3ZM351.032 109.35C352.698 109.35 354.04 109.85 355.057 110.85C356.09 111.85 356.607 113.333 356.607 115.3V123H352.707V115.9C352.707 114.833 352.473 114.042 352.007 113.525C351.54 112.992 350.865 112.725 349.982 112.725C348.998 112.725 348.215 113.033 347.632 113.65C347.048 114.25 346.757 115.15 346.757 116.35V123H342.857V109.55H346.582V111.125C347.098 110.558 347.74 110.125 348.507 109.825C349.273 109.508 350.115 109.35 351.032 109.35ZM366.788 123.2C365.355 123.2 364.063 122.908 362.913 122.325C361.78 121.725 360.888 120.9 360.238 119.85C359.605 118.8 359.288 117.608 359.288 116.275C359.288 114.942 359.605 113.75 360.238 112.7C360.888 111.65 361.78 110.833 362.913 110.25C364.063 109.65 365.355 109.35 366.788 109.35C368.205 109.35 369.438 109.65 370.488 110.25C371.555 110.833 372.33 111.675 372.813 112.775L369.788 114.4C369.088 113.167 368.08 112.55 366.763 112.55C365.747 112.55 364.905 112.883 364.238 113.55C363.572 114.217 363.238 115.125 363.238 116.275C363.238 117.425 363.572 118.333 364.238 119C364.905 119.667 365.747 120 366.763 120C368.097 120 369.105 119.383 369.788 118.15L372.813 119.8C372.33 120.867 371.555 121.7 370.488 122.3C369.438 122.9 368.205 123.2 366.788 123.2ZM388.063 116.325C388.063 116.375 388.038 116.725 387.988 117.375H377.813C377.996 118.208 378.43 118.867 379.113 119.35C379.796 119.833 380.646 120.075 381.663 120.075C382.363 120.075 382.98 119.975 383.513 119.775C384.063 119.558 384.571 119.225 385.038 118.775L387.113 121.025C385.846 122.475 383.996 123.2 381.563 123.2C380.046 123.2 378.705 122.908 377.538 122.325C376.371 121.725 375.471 120.9 374.838 119.85C374.205 118.8 373.888 117.608 373.888 116.275C373.888 114.958 374.196 113.775 374.813 112.725C375.446 111.658 376.305 110.833 377.388 110.25C378.488 109.65 379.713 109.35 381.063 109.35C382.38 109.35 383.571 109.633 384.638 110.2C385.705 110.767 386.538 111.583 387.138 112.65C387.755 113.7 388.063 114.925 388.063 116.325ZM381.088 112.3C380.205 112.3 379.463 112.55 378.863 113.05C378.263 113.55 377.896 114.233 377.763 115.1H384.388C384.255 114.25 383.888 113.575 383.288 113.075C382.688 112.558 381.955 112.3 381.088 112.3ZM404.359 104.45V123H400.634V121.45C399.668 122.617 398.268 123.2 396.434 123.2C395.168 123.2 394.018 122.917 392.984 122.35C391.968 121.783 391.168 120.975 390.584 119.925C390.001 118.875 389.709 117.658 389.709 116.275C389.709 114.892 390.001 113.675 390.584 112.625C391.168 111.575 391.968 110.767 392.984 110.2C394.018 109.633 395.168 109.35 396.434 109.35C398.151 109.35 399.493 109.892 400.459 110.975V104.45H404.359ZM397.109 120C398.093 120 398.909 119.667 399.559 119C400.209 118.317 400.534 117.408 400.534 116.275C400.534 115.142 400.209 114.242 399.559 113.575C398.909 112.892 398.093 112.55 397.109 112.55C396.109 112.55 395.284 112.892 394.634 113.575C393.984 114.242 393.659 115.142 393.659 116.275C393.659 117.408 393.984 118.317 394.634 119C395.284 119.667 396.109 120 397.109 120ZM414.369 123.2C412.952 123.2 411.677 122.908 410.544 122.325C409.427 121.725 408.552 120.9 407.919 119.85C407.286 118.8 406.969 117.608 406.969 116.275C406.969 114.942 407.286 113.75 407.919 112.7C408.552 111.65 409.427 110.833 410.544 110.25C411.677 109.65 412.952 109.35 414.369 109.35C415.786 109.35 417.052 109.65 418.169 110.25C419.286 110.833 420.161 111.65 420.794 112.7C421.427 113.75 421.744 114.942 421.744 116.275C421.744 117.608 421.427 118.8 420.794 119.85C420.161 120.9 419.286 121.725 418.169 122.325C417.052 122.908 415.786 123.2 414.369 123.2ZM414.369 120C415.369 120 416.186 119.667 416.819 119C417.469 118.317 417.794 117.408 417.794 116.275C417.794 115.142 417.469 114.242 416.819 113.575C416.186 112.892 415.369 112.55 414.369 112.55C413.369 112.55 412.544 112.892 411.894 113.575C411.244 114.242 410.919 115.142 410.919 116.275C410.919 117.408 411.244 118.317 411.894 119C412.544 119.667 413.369 120 414.369 120ZM428.076 111.325C428.542 110.675 429.167 110.183 429.951 109.85C430.751 109.517 431.667 109.35 432.701 109.35V112.95C432.267 112.917 431.976 112.9 431.826 112.9C430.709 112.9 429.834 113.217 429.201 113.85C428.567 114.467 428.251 115.4 428.251 116.65V123H424.351V109.55H428.076V111.325ZM448.122 105.5V123H444.072V108.75H440.572V105.5H448.122Z" fill="#00334A"/>
<line x1="186" y1="75.5" x2="247" y2="75.5" stroke="#DFDFDF" stroke-width="5"/>
<line x1="247" y1="113.5" x2="287" y2="113.5" stroke="#DFDFDF" stroke-width="5"/>
<line x1="473" y1="114.5" x2="513" y2="114.5" stroke="#DFDFDF" stroke-width="5"/>
<line x1="473" y1="262.5" x2="513" y2="262.5" stroke="#DFDFDF" stroke-width="5"/>
<line x1="247" y1="260.5" x2="287" y2="260.5" stroke="#DFDFDF" stroke-width="5"/>
<line x1="186" y1="148.5" x2="247" y2="148.5" stroke="#DFDFDF" stroke-width="5"/>
<line x1="186" y1="225.5" x2="247" y2="225.5" stroke="#DFDFDF" stroke-width="5"/>
<line x1="186" y1="300.5" x2="247" y2="300.5" stroke="#DFDFDF" stroke-width="5"/>
<line x1="244.5" y1="303" x2="244.5" y2="73" stroke="#DFDFDF" stroke-width="5"/>
<path d="M309.54 29.36C307.4 29.36 305.46 28.9 303.72 27.98C302 27.04 300.64 25.75 299.64 24.11C298.66 22.45 298.17 20.58 298.17 18.5C298.17 16.42 298.66 14.56 299.64 12.92C300.64 11.26 302 9.97 303.72 9.05C305.46 8.11 307.41 7.64 309.57 7.64C311.39 7.64 313.03 7.96 314.49 8.6C315.97 9.24 317.21 10.16 318.21 11.36L315.09 14.24C313.67 12.6 311.91 11.78 309.81 11.78C308.51 11.78 307.35 12.07 306.33 12.65C305.31 13.21 304.51 14 303.93 15.02C303.37 16.04 303.09 17.2 303.09 18.5C303.09 19.8 303.37 20.96 303.93 21.98C304.51 23 305.31 23.8 306.33 24.38C307.35 24.94 308.51 25.22 309.81 25.22C311.91 25.22 313.67 24.39 315.09 22.73L318.21 25.61C317.21 26.83 315.97 27.76 314.49 28.4C313.01 29.04 311.36 29.36 309.54 29.36ZM330.972 12.62C332.972 12.62 334.582 13.22 335.802 14.42C337.042 15.62 337.662 17.4 337.662 19.76V29H332.982V20.48C332.982 19.2 332.702 18.25 332.142 17.63C331.582 16.99 330.772 16.67 329.712 16.67C328.532 16.67 327.592 17.04 326.892 17.78C326.192 18.5 325.842 19.58 325.842 21.02V29H321.162V6.74H325.842V14.54C326.462 13.92 327.212 13.45 328.092 13.13C328.972 12.79 329.932 12.62 330.972 12.62ZM348.414 12.62C350.914 12.62 352.834 13.22 354.174 14.42C355.514 15.6 356.184 17.39 356.184 19.79V29H351.804V26.99C350.924 28.49 349.284 29.24 346.884 29.24C345.644 29.24 344.564 29.03 343.644 28.61C342.744 28.19 342.054 27.61 341.574 26.87C341.094 26.13 340.854 25.29 340.854 24.35C340.854 22.85 341.414 21.67 342.534 20.81C343.674 19.95 345.424 19.52 347.784 19.52H351.504C351.504 18.5 351.194 17.72 350.574 17.18C349.954 16.62 349.024 16.34 347.784 16.34C346.924 16.34 346.074 16.48 345.234 16.76C344.414 17.02 343.714 17.38 343.134 17.84L341.454 14.57C342.334 13.95 343.384 13.47 344.604 13.13C345.844 12.79 347.114 12.62 348.414 12.62ZM348.054 26.09C348.854 26.09 349.564 25.91 350.184 25.55C350.804 25.17 351.244 24.62 351.504 23.9V22.25H348.294C346.374 22.25 345.414 22.88 345.414 24.14C345.414 24.74 345.644 25.22 346.104 25.58C346.584 25.92 347.234 26.09 348.054 26.09ZM376.147 12.86L369.337 29H364.507L357.727 12.86H362.557L367.027 23.84L371.647 12.86H376.147ZM393.427 20.99C393.427 21.05 393.397 21.47 393.337 22.25H381.127C381.347 23.25 381.867 24.04 382.687 24.62C383.507 25.2 384.527 25.49 385.747 25.49C386.587 25.49 387.327 25.37 387.967 25.13C388.627 24.87 389.237 24.47 389.797 23.93L392.287 26.63C390.767 28.37 388.547 29.24 385.627 29.24C383.807 29.24 382.197 28.89 380.797 28.19C379.397 27.47 378.317 26.48 377.557 25.22C376.797 23.96 376.417 22.53 376.417 20.93C376.417 19.35 376.787 17.93 377.527 16.67C378.287 15.39 379.317 14.4 380.617 13.7C381.937 12.98 383.407 12.62 385.027 12.62C386.607 12.62 388.037 12.96 389.317 13.64C390.597 14.32 391.597 15.3 392.317 16.58C393.057 17.84 393.427 19.31 393.427 20.99ZM385.057 16.16C383.997 16.16 383.107 16.46 382.387 17.06C381.667 17.66 381.227 18.48 381.067 19.52H389.017C388.857 18.5 388.417 17.69 387.697 17.09C386.977 16.47 386.097 16.16 385.057 16.16ZM412.269 29.36C410.609 29.36 408.999 29.14 407.439 28.7C405.899 28.24 404.659 27.65 403.719 26.93L405.369 23.27C406.269 23.93 407.339 24.46 408.579 24.86C409.819 25.26 411.059 25.46 412.299 25.46C413.679 25.46 414.699 25.26 415.359 24.86C416.019 24.44 416.349 23.89 416.349 23.21C416.349 22.71 416.149 22.3 415.749 21.98C415.369 21.64 414.869 21.37 414.249 21.17C413.649 20.97 412.829 20.75 411.789 20.51C410.189 20.13 408.879 19.75 407.859 19.37C406.839 18.99 405.959 18.38 405.219 17.54C404.499 16.7 404.139 15.58 404.139 14.18C404.139 12.96 404.469 11.86 405.129 10.88C405.789 9.88 406.779 9.09 408.099 8.51C409.439 7.93 411.069 7.64 412.989 7.64C414.329 7.64 415.639 7.8 416.919 8.12C418.199 8.44 419.319 8.9 420.279 9.5L418.779 13.19C416.839 12.09 414.899 11.54 412.959 11.54C411.599 11.54 410.589 11.76 409.929 12.2C409.289 12.64 408.969 13.22 408.969 13.94C408.969 14.66 409.339 15.2 410.079 15.56C410.839 15.9 411.989 16.24 413.529 16.58C415.129 16.96 416.439 17.34 417.459 17.72C418.479 18.1 419.349 18.7 420.069 19.52C420.809 20.34 421.179 21.45 421.179 22.85C421.179 24.05 420.839 25.15 420.159 26.15C419.499 27.13 418.499 27.91 417.159 28.49C415.819 29.07 414.189 29.36 412.269 29.36ZM440.43 12.86V29H435.99V27.08C435.37 27.78 434.63 28.32 433.77 28.7C432.91 29.06 431.98 29.24 430.98 29.24C428.86 29.24 427.18 28.63 425.94 27.41C424.7 26.19 424.08 24.38 424.08 21.98V12.86H428.76V21.29C428.76 23.89 429.85 25.19 432.03 25.19C433.15 25.19 434.05 24.83 434.73 24.11C435.41 23.37 435.75 22.28 435.75 20.84V12.86H440.43ZM454.305 12.62C455.805 12.62 457.165 12.97 458.385 13.67C459.625 14.35 460.595 15.32 461.295 16.58C461.995 17.82 462.345 19.27 462.345 20.93C462.345 22.59 461.995 24.05 461.295 25.31C460.595 26.55 459.625 27.52 458.385 28.22C457.165 28.9 455.805 29.24 454.305 29.24C452.245 29.24 450.625 28.59 449.445 27.29V34.82H444.765V12.86H449.235V14.72C450.395 13.32 452.085 12.62 454.305 12.62ZM453.495 25.4C454.695 25.4 455.675 25 456.435 24.2C457.215 23.38 457.605 22.29 457.605 20.93C457.605 19.57 457.215 18.49 456.435 17.69C455.675 16.87 454.695 16.46 453.495 16.46C452.295 16.46 451.305 16.87 450.525 17.69C449.765 18.49 449.385 19.57 449.385 20.93C449.385 22.29 449.765 23.38 450.525 24.2C451.305 25 452.295 25.4 453.495 25.4ZM481.288 20.99C481.288 21.05 481.258 21.47 481.198 22.25H468.988C469.208 23.25 469.728 24.04 470.548 24.62C471.368 25.2 472.388 25.49 473.608 25.49C474.448 25.49 475.188 25.37 475.828 25.13C476.488 24.87 477.098 24.47 477.658 23.93L480.148 26.63C478.628 28.37 476.408 29.24 473.488 29.24C471.668 29.24 470.058 28.89 468.658 28.19C467.258 27.47 466.178 26.48 465.418 25.22C464.658 23.96 464.278 22.53 464.278 20.93C464.278 19.35 464.648 17.93 465.388 16.67C466.148 15.39 467.178 14.4 468.478 13.7C469.798 12.98 471.268 12.62 472.888 12.62C474.468 12.62 475.898 12.96 477.178 13.64C478.458 14.32 479.458 15.3 480.178 16.58C480.918 17.84 481.288 19.31 481.288 20.99ZM472.918 16.16C471.858 16.16 470.968 16.46 470.248 17.06C469.528 17.66 469.088 18.48 468.928 19.52H476.878C476.718 18.5 476.278 17.69 475.558 17.09C474.838 16.47 473.958 16.16 472.918 16.16ZM488.874 14.99C489.434 14.21 490.184 13.62 491.124 13.22C492.084 12.82 493.184 12.62 494.424 12.62V16.94C493.904 16.9 493.554 16.88 493.374 16.88C492.034 16.88 490.984 17.26 490.224 18.02C489.464 18.76 489.084 19.88 489.084 21.38V29H484.404V12.86H488.874V14.99ZM497.207 12.86H501.887V29H497.207V12.86ZM499.547 10.61C498.687 10.61 497.987 10.36 497.447 9.86C496.907 9.36 496.637 8.74 496.637 8C496.637 7.26 496.907 6.64 497.447 6.14C497.987 5.64 498.687 5.39 499.547 5.39C500.407 5.39 501.107 5.63 501.647 6.11C502.187 6.59 502.457 7.19 502.457 7.91C502.457 8.69 502.187 9.34 501.647 9.86C501.107 10.36 500.407 10.61 499.547 10.61ZM513.91 29.24C512.21 29.24 510.68 28.89 509.32 28.19C507.98 27.47 506.93 26.48 506.17 25.22C505.41 23.96 505.03 22.53 505.03 20.93C505.03 19.33 505.41 17.9 506.17 16.64C506.93 15.38 507.98 14.4 509.32 13.7C510.68 12.98 512.21 12.62 513.91 12.62C515.61 12.62 517.13 12.98 518.47 13.7C519.81 14.4 520.86 15.38 521.62 16.64C522.38 17.9 522.76 19.33 522.76 20.93C522.76 22.53 522.38 23.96 521.62 25.22C520.86 26.48 519.81 27.47 518.47 28.19C517.13 28.89 515.61 29.24 513.91 29.24ZM513.91 25.4C515.11 25.4 516.09 25 516.85 24.2C517.63 23.38 518.02 22.29 518.02 20.93C518.02 19.57 517.63 18.49 516.85 17.69C516.09 16.87 515.11 16.46 513.91 16.46C512.71 16.46 511.72 16.87 510.94 17.69C510.16 18.49 509.77 19.57 509.77 20.93C509.77 22.29 510.16 23.38 510.94 24.2C511.72 25 512.71 25.4 513.91 25.4ZM530.359 14.99C530.919 14.21 531.669 13.62 532.609 13.22C533.569 12.82 534.669 12.62 535.909 12.62V16.94C535.389 16.9 535.039 16.88 534.859 16.88C533.519 16.88 532.469 17.26 531.709 18.02C530.949 18.76 530.569 19.88 530.569 21.38V29H525.889V12.86H530.359V14.99Z" fill="white"/>
<line x1="510.5" y1="263" x2="510.5" y2="113" stroke="#DFDFDF" stroke-width="5"/>
<line x1="517" y1="185.5" x2="557" y2="185.5" stroke="#DFDFDF" stroke-width="5"/>
<circle cx="510.5" cy="186.5" r="14.5" fill="#00AFFF"/>
<path d="M517 191.325H514.15V195H510.2V191.325H500.775V188.6L509.025 177.5H513.275L505.625 188.025H510.325V184.75H514.15V188.025H517V191.325Z" fill="white"/>
<rect x="553.5" y="164.5" width="183" height="45" fill="#FAFAFA" stroke="#DFDFDF" stroke-width="3"/>
<path d="M591.9 178.5L584.325 196H580.325L572.775 178.5H577.15L582.475 191L587.875 178.5H591.9ZM605.26 189.325C605.26 189.375 605.235 189.725 605.185 190.375H595.01C595.193 191.208 595.627 191.867 596.31 192.35C596.993 192.833 597.843 193.075 598.86 193.075C599.56 193.075 600.177 192.975 600.71 192.775C601.26 192.558 601.768 192.225 602.235 191.775L604.31 194.025C603.043 195.475 601.193 196.2 598.76 196.2C597.243 196.2 595.902 195.908 594.735 195.325C593.568 194.725 592.668 193.9 592.035 192.85C591.402 191.8 591.085 190.608 591.085 189.275C591.085 187.958 591.393 186.775 592.01 185.725C592.643 184.658 593.502 183.833 594.585 183.25C595.685 182.65 596.91 182.35 598.26 182.35C599.577 182.35 600.768 182.633 601.835 183.2C602.902 183.767 603.735 184.583 604.335 185.65C604.952 186.7 605.26 187.925 605.26 189.325ZM598.285 185.3C597.402 185.3 596.66 185.55 596.06 186.05C595.46 186.55 595.093 187.233 594.96 188.1H601.585C601.452 187.25 601.085 186.575 600.485 186.075C599.885 185.558 599.152 185.3 598.285 185.3ZM616.032 182.35C617.698 182.35 619.04 182.85 620.057 183.85C621.09 184.85 621.607 186.333 621.607 188.3V196H617.707V188.9C617.707 187.833 617.473 187.042 617.007 186.525C616.54 185.992 615.865 185.725 614.982 185.725C613.998 185.725 613.215 186.033 612.632 186.65C612.048 187.25 611.757 188.15 611.757 189.35V196H607.857V182.55H611.582V184.125C612.098 183.558 612.74 183.125 613.507 182.825C614.273 182.508 615.115 182.35 616.032 182.35ZM631.788 196.2C630.355 196.2 629.063 195.908 627.913 195.325C626.78 194.725 625.888 193.9 625.238 192.85C624.605 191.8 624.288 190.608 624.288 189.275C624.288 187.942 624.605 186.75 625.238 185.7C625.888 184.65 626.78 183.833 627.913 183.25C629.063 182.65 630.355 182.35 631.788 182.35C633.205 182.35 634.438 182.65 635.488 183.25C636.555 183.833 637.33 184.675 637.813 185.775L634.788 187.4C634.088 186.167 633.08 185.55 631.763 185.55C630.747 185.55 629.905 185.883 629.238 186.55C628.572 187.217 628.238 188.125 628.238 189.275C628.238 190.425 628.572 191.333 629.238 192C629.905 192.667 630.747 193 631.763 193C633.097 193 634.105 192.383 634.788 191.15L637.813 192.8C637.33 193.867 636.555 194.7 635.488 195.3C634.438 195.9 633.205 196.2 631.788 196.2ZM653.063 189.325C653.063 189.375 653.038 189.725 652.988 190.375H642.813C642.996 191.208 643.43 191.867 644.113 192.35C644.796 192.833 645.646 193.075 646.663 193.075C647.363 193.075 647.98 192.975 648.513 192.775C649.063 192.558 649.571 192.225 650.038 191.775L652.113 194.025C650.846 195.475 648.996 196.2 646.563 196.2C645.046 196.2 643.705 195.908 642.538 195.325C641.371 194.725 640.471 193.9 639.838 192.85C639.205 191.8 638.888 190.608 638.888 189.275C638.888 187.958 639.196 186.775 639.813 185.725C640.446 184.658 641.305 183.833 642.388 183.25C643.488 182.65 644.713 182.35 646.063 182.35C647.38 182.35 648.571 182.633 649.638 183.2C650.705 183.767 651.538 184.583 652.138 185.65C652.755 186.7 653.063 187.925 653.063 189.325ZM646.088 185.3C645.205 185.3 644.463 185.55 643.863 186.05C643.263 186.55 642.896 187.233 642.763 188.1H649.388C649.255 187.25 648.888 186.575 648.288 186.075C647.688 185.558 646.955 185.3 646.088 185.3ZM669.359 177.45V196H665.634V194.45C664.668 195.617 663.268 196.2 661.434 196.2C660.168 196.2 659.018 195.917 657.984 195.35C656.968 194.783 656.168 193.975 655.584 192.925C655.001 191.875 654.709 190.658 654.709 189.275C654.709 187.892 655.001 186.675 655.584 185.625C656.168 184.575 656.968 183.767 657.984 183.2C659.018 182.633 660.168 182.35 661.434 182.35C663.151 182.35 664.493 182.892 665.459 183.975V177.45H669.359ZM662.109 193C663.093 193 663.909 192.667 664.559 192C665.209 191.317 665.534 190.408 665.534 189.275C665.534 188.142 665.209 187.242 664.559 186.575C663.909 185.892 663.093 185.55 662.109 185.55C661.109 185.55 660.284 185.892 659.634 186.575C658.984 187.242 658.659 188.142 658.659 189.275C658.659 190.408 658.984 191.317 659.634 192C660.284 192.667 661.109 193 662.109 193ZM679.369 196.2C677.952 196.2 676.677 195.908 675.544 195.325C674.427 194.725 673.552 193.9 672.919 192.85C672.286 191.8 671.969 190.608 671.969 189.275C671.969 187.942 672.286 186.75 672.919 185.7C673.552 184.65 674.427 183.833 675.544 183.25C676.677 182.65 677.952 182.35 679.369 182.35C680.786 182.35 682.052 182.65 683.169 183.25C684.286 183.833 685.161 184.65 685.794 185.7C686.427 186.75 686.744 187.942 686.744 189.275C686.744 190.608 686.427 191.8 685.794 192.85C685.161 193.9 684.286 194.725 683.169 195.325C682.052 195.908 680.786 196.2 679.369 196.2ZM679.369 193C680.369 193 681.186 192.667 681.819 192C682.469 191.317 682.794 190.408 682.794 189.275C682.794 188.142 682.469 187.242 681.819 186.575C681.186 185.892 680.369 185.55 679.369 185.55C678.369 185.55 677.544 185.892 676.894 186.575C676.244 187.242 675.919 188.142 675.919 189.275C675.919 190.408 676.244 191.317 676.894 192C677.544 192.667 678.369 193 679.369 193ZM693.076 184.325C693.542 183.675 694.167 183.183 694.951 182.85C695.751 182.517 696.667 182.35 697.701 182.35V185.95C697.267 185.917 696.976 185.9 696.826 185.9C695.709 185.9 694.834 186.217 694.201 186.85C693.567 187.467 693.251 188.4 693.251 189.65V196H689.351V182.55H693.076V184.325ZM722.397 192.325H719.547V196H715.597V192.325H706.172V189.6L714.422 178.5H718.672L711.022 189.025H715.722V185.75H719.547V189.025H722.397V192.325Z" fill="#00334A"/>
<circle cx="244.5" cy="111.5" r="14.5" fill="#00AFFF"/>
<path d="M247.725 103.5V121H243.675V106.75H240.175V103.5H247.725Z" fill="white"/>
<line x1="813" y1="311.5" x2="853" y2="311.5" stroke="#DFDFDF" stroke-width="5"/>
<rect x="744" y="293" width="87" height="38" rx="10" fill="#00AFFF"/>
<path d="M760.125 305.75V310.375H768.225V313.625H760.125V320H756.075V302.5H769.3V305.75H760.125ZM771.523 306.55H775.423V320H771.523V306.55ZM773.473 304.675C772.756 304.675 772.173 304.467 771.723 304.05C771.273 303.633 771.048 303.117 771.048 302.5C771.048 301.883 771.273 301.367 771.723 300.95C772.173 300.533 772.756 300.325 773.473 300.325C774.189 300.325 774.773 300.525 775.223 300.925C775.673 301.325 775.898 301.825 775.898 302.425C775.898 303.075 775.673 303.617 775.223 304.05C774.773 304.467 774.189 304.675 773.473 304.675ZM787.217 306.35C788.884 306.35 790.226 306.85 791.242 307.85C792.276 308.85 792.792 310.333 792.792 312.3V320H788.892V312.9C788.892 311.833 788.659 311.042 788.192 310.525C787.726 309.992 787.051 309.725 786.167 309.725C785.184 309.725 784.401 310.033 783.817 310.65C783.234 311.25 782.942 312.15 782.942 313.35V320H779.042V306.55H782.767V308.125C783.284 307.558 783.926 307.125 784.692 306.825C785.459 306.508 786.301 306.35 787.217 306.35ZM801.752 306.35C803.836 306.35 805.436 306.85 806.552 307.85C807.669 308.833 808.227 310.325 808.227 312.325V320H804.577V318.325C803.844 319.575 802.477 320.2 800.477 320.2C799.444 320.2 798.544 320.025 797.777 319.675C797.027 319.325 796.452 318.842 796.052 318.225C795.652 317.608 795.452 316.908 795.452 316.125C795.452 314.875 795.919 313.892 796.852 313.175C797.802 312.458 799.261 312.1 801.227 312.1H804.327C804.327 311.25 804.069 310.6 803.552 310.15C803.036 309.683 802.261 309.45 801.227 309.45C800.511 309.45 799.802 309.567 799.102 309.8C798.419 310.017 797.836 310.317 797.352 310.7L795.952 307.975C796.686 307.458 797.561 307.058 798.577 306.775C799.611 306.492 800.669 306.35 801.752 306.35ZM801.452 317.575C802.119 317.575 802.711 317.425 803.227 317.125C803.744 316.808 804.111 316.35 804.327 315.75V314.375H801.652C800.052 314.375 799.252 314.9 799.252 315.95C799.252 316.45 799.444 316.85 799.827 317.15C800.227 317.433 800.769 317.575 801.452 317.575ZM811.757 301.45H815.657V320H811.757V301.45Z" fill="white"/>
<rect x="854.5" y="288.5" width="183" height="45" fill="#FAFAFA" stroke="#DFDFDF" stroke-width="3"/>
<path d="M887.45 320.3C885.667 320.3 884.05 319.917 882.6 319.15C881.167 318.367 880.033 317.292 879.2 315.925C878.383 314.542 877.975 312.983 877.975 311.25C877.975 309.517 878.383 307.967 879.2 306.6C880.033 305.217 881.167 304.142 882.6 303.375C884.05 302.592 885.675 302.2 887.475 302.2C888.992 302.2 890.358 302.467 891.575 303C892.808 303.533 893.842 304.3 894.675 305.3L892.075 307.7C890.892 306.333 889.425 305.65 887.675 305.65C886.592 305.65 885.625 305.892 884.775 306.375C883.925 306.842 883.258 307.5 882.775 308.35C882.308 309.2 882.075 310.167 882.075 311.25C882.075 312.333 882.308 313.3 882.775 314.15C883.258 315 883.925 315.667 884.775 316.15C885.625 316.617 886.592 316.85 887.675 316.85C889.425 316.85 890.892 316.158 892.075 314.775L894.675 317.175C893.842 318.192 892.808 318.967 891.575 319.5C890.342 320.033 888.967 320.3 887.45 320.3ZM908.593 316.25H900.468L898.918 320H894.768L902.568 302.5H906.568L914.393 320H910.143L908.593 316.25ZM907.318 313.175L904.543 306.475L901.768 313.175H907.318ZM932.134 320L932.109 309.5L926.959 318.15H925.134L920.009 309.725V320H916.209V302.5H919.559L926.109 313.375L932.559 302.5H935.884L935.934 320H932.134ZM947.661 302.5C949.211 302.5 950.552 302.758 951.686 303.275C952.836 303.792 953.719 304.525 954.336 305.475C954.952 306.425 955.261 307.55 955.261 308.85C955.261 310.133 954.952 311.258 954.336 312.225C953.719 313.175 952.836 313.908 951.686 314.425C950.552 314.925 949.211 315.175 947.661 315.175H944.136V320H940.086V302.5H947.661ZM947.436 311.875C948.652 311.875 949.577 311.617 950.211 311.1C950.844 310.567 951.161 309.817 951.161 308.85C951.161 307.867 950.844 307.117 950.211 306.6C949.577 306.067 948.652 305.8 947.436 305.8H944.136V311.875H947.436ZM971.702 316.75V320H958.152V302.5H971.377V305.75H962.177V309.55H970.302V312.7H962.177V316.75H971.702ZM986.45 316.25H978.325L976.775 320H972.625L980.425 302.5H984.425L992.25 320H988L986.45 316.25ZM985.175 313.175L982.4 306.475L979.625 313.175H985.175ZM984.3 301.15C983.85 301.15 983.45 301.067 983.1 300.9C982.766 300.717 982.391 300.475 981.975 300.175C981.708 299.975 981.483 299.825 981.3 299.725C981.133 299.625 980.966 299.575 980.8 299.575C980.45 299.575 980.166 299.7 979.95 299.95C979.733 300.183 979.616 300.525 979.6 300.975H977.625C977.658 299.858 977.933 298.975 978.45 298.325C978.983 297.658 979.683 297.325 980.55 297.325C980.983 297.325 981.366 297.417 981.7 297.6C982.05 297.767 982.441 298.008 982.875 298.325C983.141 298.525 983.358 298.675 983.525 298.775C983.708 298.875 983.883 298.925 984.05 298.925C984.383 298.925 984.658 298.808 984.875 298.575C985.108 298.325 985.233 297.992 985.25 297.575H987.225C987.191 298.658 986.908 299.525 986.375 300.175C985.858 300.825 985.166 301.15 984.3 301.15ZM1002.3 320.3C1000.48 320.3 998.838 319.908 997.371 319.125C995.921 318.342 994.779 317.267 993.946 315.9C993.129 314.517 992.721 312.967 992.721 311.25C992.721 309.533 993.129 307.992 993.946 306.625C994.779 305.242 995.921 304.158 997.371 303.375C998.838 302.592 1000.48 302.2 1002.3 302.2C1004.11 302.2 1005.75 302.592 1007.2 303.375C1008.65 304.158 1009.79 305.242 1010.62 306.625C1011.45 307.992 1011.87 309.533 1011.87 311.25C1011.87 312.967 1011.45 314.517 1010.62 315.9C1009.79 317.267 1008.65 318.342 1007.2 319.125C1005.75 319.908 1004.11 320.3 1002.3 320.3ZM1002.3 316.85C1003.33 316.85 1004.26 316.617 1005.1 316.15C1005.93 315.667 1006.58 315 1007.05 314.15C1007.53 313.3 1007.77 312.333 1007.77 311.25C1007.77 310.167 1007.53 309.2 1007.05 308.35C1006.58 307.5 1005.93 306.842 1005.1 306.375C1004.26 305.892 1003.33 305.65 1002.3 305.65C1001.26 305.65 1000.33 305.892 999.496 306.375C998.663 306.842 998.004 307.5 997.521 308.35C997.054 309.2 996.821 310.167 996.821 311.25C996.821 312.333 997.054 313.3 997.521 314.15C998.004 315 998.663 315.667 999.496 316.15C1000.33 316.617 1001.26 316.85 1002.3 316.85Z" fill="#00334A"/>
<circle cx="244.5" cy="259.5" r="14.5" fill="#00AFFF"/>
<path d="M251.05 265.7V269H237.825V266.375L244.575 260C245.292 259.317 245.775 258.733 246.025 258.25C246.275 257.75 246.4 257.258 246.4 256.775C246.4 256.075 246.158 255.542 245.675 255.175C245.208 254.792 244.517 254.6 243.6 254.6C242.833 254.6 242.142 254.75 241.525 255.05C240.908 255.333 240.392 255.767 239.975 256.35L237.025 254.45C237.708 253.433 238.65 252.642 239.85 252.075C241.05 251.492 242.425 251.2 243.975 251.2C245.275 251.2 246.408 251.417 247.375 251.85C248.358 252.267 249.117 252.867 249.65 253.65C250.2 254.417 250.475 255.325 250.475 256.375C250.475 257.325 250.275 258.217 249.875 259.05C249.475 259.883 248.7 260.833 247.55 261.9L243.525 265.7H251.05Z" fill="white"/>
<line x1="516.5" y1="456.5" x2="556.5" y2="456.5" stroke="#DFDFDF" stroke-width="5"/>
<rect x="1.5" y="503.5" width="183" height="45" fill="#FAFAFA" stroke="#DFDFDF" stroke-width="3"/>
<path d="M33.65 515.5C35.2 515.5 36.5417 515.758 37.675 516.275C38.825 516.792 39.7083 517.525 40.325 518.475C40.9417 519.425 41.25 520.55 41.25 521.85C41.25 523.133 40.9417 524.258 40.325 525.225C39.7083 526.175 38.825 526.908 37.675 527.425C36.5417 527.925 35.2 528.175 33.65 528.175H30.125V533H26.075V515.5H33.65ZM33.425 524.875C34.6417 524.875 35.5667 524.617 36.2 524.1C36.8333 523.567 37.15 522.817 37.15 521.85C37.15 520.867 36.8333 520.117 36.2 519.6C35.5667 519.067 34.6417 518.8 33.425 518.8H30.125V524.875H33.425ZM57.017 526.325C57.017 526.375 56.992 526.725 56.942 527.375H46.767C46.9503 528.208 47.3837 528.867 48.067 529.35C48.7503 529.833 49.6003 530.075 50.617 530.075C51.317 530.075 51.9337 529.975 52.467 529.775C53.017 529.558 53.5253 529.225 53.992 528.775L56.067 531.025C54.8003 532.475 52.9503 533.2 50.517 533.2C49.0003 533.2 47.6587 532.908 46.492 532.325C45.3253 531.725 44.4253 530.9 43.792 529.85C43.1587 528.8 42.842 527.608 42.842 526.275C42.842 524.958 43.1503 523.775 43.767 522.725C44.4003 521.658 45.2587 520.833 46.342 520.25C47.442 519.65 48.667 519.35 50.017 519.35C51.3337 519.35 52.5253 519.633 53.592 520.2C54.6587 520.767 55.492 521.583 56.092 522.65C56.7087 523.7 57.017 524.925 57.017 526.325ZM50.042 522.3C49.1587 522.3 48.417 522.55 47.817 523.05C47.217 523.55 46.8503 524.233 46.717 525.1H53.342C53.2087 524.25 52.842 523.575 52.242 523.075C51.642 522.558 50.9087 522.3 50.042 522.3ZM63.3385 521.325C63.8051 520.675 64.4301 520.183 65.2135 519.85C66.0135 519.517 66.9301 519.35 67.9635 519.35V522.95C67.5301 522.917 67.2385 522.9 67.0885 522.9C65.9718 522.9 65.0968 523.217 64.4635 523.85C63.8301 524.467 63.5135 525.4 63.5135 526.65V533H59.6135V519.55H63.3385V521.325ZM83.8604 514.45V533H80.1354V531.45C79.1687 532.617 77.7687 533.2 75.9354 533.2C74.6687 533.2 73.5187 532.917 72.4854 532.35C71.4687 531.783 70.6687 530.975 70.0854 529.925C69.502 528.875 69.2104 527.658 69.2104 526.275C69.2104 524.892 69.502 523.675 70.0854 522.625C70.6687 521.575 71.4687 520.767 72.4854 520.2C73.5187 519.633 74.6687 519.35 75.9354 519.35C77.652 519.35 78.9937 519.892 79.9604 520.975V514.45H83.8604ZM76.6104 530C77.5937 530 78.4104 529.667 79.0604 529C79.7104 528.317 80.0354 527.408 80.0354 526.275C80.0354 525.142 79.7104 524.242 79.0604 523.575C78.4104 522.892 77.5937 522.55 76.6104 522.55C75.6104 522.55 74.7854 522.892 74.1354 523.575C73.4854 524.242 73.1604 525.142 73.1604 526.275C73.1604 527.408 73.4854 528.317 74.1354 529C74.7854 529.667 75.6104 530 76.6104 530ZM100.645 526.325C100.645 526.375 100.62 526.725 100.57 527.375H90.3949C90.5783 528.208 91.0116 528.867 91.6949 529.35C92.3783 529.833 93.2283 530.075 94.2449 530.075C94.9449 530.075 95.5616 529.975 96.0949 529.775C96.6449 529.558 97.1533 529.225 97.6199 528.775L99.6949 531.025C98.4283 532.475 96.5783 533.2 94.1449 533.2C92.6283 533.2 91.2866 532.908 90.1199 532.325C88.9533 531.725 88.0533 530.9 87.4199 529.85C86.7866 528.8 86.4699 527.608 86.4699 526.275C86.4699 524.958 86.7783 523.775 87.3949 522.725C88.0283 521.658 88.8866 520.833 89.9699 520.25C91.0699 519.65 92.2949 519.35 93.6449 519.35C94.9616 519.35 96.1533 519.633 97.2199 520.2C98.2866 520.767 99.1199 521.583 99.7199 522.65C100.337 523.7 100.645 524.925 100.645 526.325ZM93.6699 522.3C92.7866 522.3 92.0449 522.55 91.4449 523.05C90.8449 523.55 90.4783 524.233 90.3449 525.1H96.9699C96.8366 524.25 96.4699 523.575 95.8699 523.075C95.2699 522.558 94.5366 522.3 93.6699 522.3ZM116.941 514.45V533H113.216V531.45C112.25 532.617 110.85 533.2 109.016 533.2C107.75 533.2 106.6 532.917 105.566 532.35C104.55 531.783 103.75 530.975 103.166 529.925C102.583 528.875 102.291 527.658 102.291 526.275C102.291 524.892 102.583 523.675 103.166 522.625C103.75 521.575 104.55 520.767 105.566 520.2C106.6 519.633 107.75 519.35 109.016 519.35C110.733 519.35 112.075 519.892 113.041 520.975V514.45H116.941ZM109.691 530C110.675 530 111.491 529.667 112.141 529C112.791 528.317 113.116 527.408 113.116 526.275C113.116 525.142 112.791 524.242 112.141 523.575C111.491 522.892 110.675 522.55 109.691 522.55C108.691 522.55 107.866 522.892 107.216 523.575C106.566 524.242 106.241 525.142 106.241 526.275C106.241 527.408 106.566 528.317 107.216 529C107.866 529.667 108.691 530 109.691 530ZM126.951 533.2C125.534 533.2 124.259 532.908 123.126 532.325C122.009 531.725 121.134 530.9 120.501 529.85C119.868 528.8 119.551 527.608 119.551 526.275C119.551 524.942 119.868 523.75 120.501 522.7C121.134 521.65 122.009 520.833 123.126 520.25C124.259 519.65 125.534 519.35 126.951 519.35C128.368 519.35 129.634 519.65 130.751 520.25C131.868 520.833 132.743 521.65 133.376 522.7C134.009 523.75 134.326 524.942 134.326 526.275C134.326 527.608 134.009 528.8 133.376 529.85C132.743 530.9 131.868 531.725 130.751 532.325C129.634 532.908 128.368 533.2 126.951 533.2ZM126.951 530C127.951 530 128.768 529.667 129.401 529C130.051 528.317 130.376 527.408 130.376 526.275C130.376 525.142 130.051 524.242 129.401 523.575C128.768 522.892 127.951 522.55 126.951 522.55C125.951 522.55 125.126 522.892 124.476 523.575C123.826 524.242 123.501 525.142 123.501 526.275C123.501 527.408 123.826 528.317 124.476 529C125.126 529.667 125.951 530 126.951 530ZM140.658 521.325C141.124 520.675 141.749 520.183 142.533 519.85C143.333 519.517 144.249 519.35 145.283 519.35V522.95C144.849 522.917 144.558 522.9 144.408 522.9C143.291 522.9 142.416 523.217 141.783 523.85C141.149 524.467 140.833 525.4 140.833 526.65V533H136.933V519.55H140.658V521.325ZM167.029 529.7V533H153.804V530.375L160.554 524C161.271 523.317 161.754 522.733 162.004 522.25C162.254 521.75 162.379 521.258 162.379 520.775C162.379 520.075 162.138 519.542 161.654 519.175C161.188 518.792 160.496 518.6 159.579 518.6C158.813 518.6 158.121 518.75 157.504 519.05C156.888 519.333 156.371 519.767 155.954 520.35L153.004 518.45C153.688 517.433 154.629 516.642 155.829 516.075C157.029 515.492 158.404 515.2 159.954 515.2C161.254 515.2 162.388 515.417 163.354 515.85C164.338 516.267 165.096 516.867 165.629 517.65C166.179 518.417 166.454 519.325 166.454 520.375C166.454 521.325 166.254 522.217 165.854 523.05C165.454 523.883 164.679 524.833 163.529 525.9L159.504 529.7H167.029Z" fill="#00334A"/>
<rect x="1.5" y="429.5" width="183" height="45" fill="#FAFAFA" stroke="#DFDFDF" stroke-width="3"/>
<path d="M33.65 442.5C35.2 442.5 36.5417 442.758 37.675 443.275C38.825 443.792 39.7083 444.525 40.325 445.475C40.9417 446.425 41.25 447.55 41.25 448.85C41.25 450.133 40.9417 451.258 40.325 452.225C39.7083 453.175 38.825 453.908 37.675 454.425C36.5417 454.925 35.2 455.175 33.65 455.175H30.125V460H26.075V442.5H33.65ZM33.425 451.875C34.6417 451.875 35.5667 451.617 36.2 451.1C36.8333 450.567 37.15 449.817 37.15 448.85C37.15 447.867 36.8333 447.117 36.2 446.6C35.5667 446.067 34.6417 445.8 33.425 445.8H30.125V451.875H33.425ZM57.017 453.325C57.017 453.375 56.992 453.725 56.942 454.375H46.767C46.9503 455.208 47.3837 455.867 48.067 456.35C48.7503 456.833 49.6003 457.075 50.617 457.075C51.317 457.075 51.9337 456.975 52.467 456.775C53.017 456.558 53.5253 456.225 53.992 455.775L56.067 458.025C54.8003 459.475 52.9503 460.2 50.517 460.2C49.0003 460.2 47.6587 459.908 46.492 459.325C45.3253 458.725 44.4253 457.9 43.792 456.85C43.1587 455.8 42.842 454.608 42.842 453.275C42.842 451.958 43.1503 450.775 43.767 449.725C44.4003 448.658 45.2587 447.833 46.342 447.25C47.442 446.65 48.667 446.35 50.017 446.35C51.3337 446.35 52.5253 446.633 53.592 447.2C54.6587 447.767 55.492 448.583 56.092 449.65C56.7087 450.7 57.017 451.925 57.017 453.325ZM50.042 449.3C49.1587 449.3 48.417 449.55 47.817 450.05C47.217 450.55 46.8503 451.233 46.717 452.1H53.342C53.2087 451.25 52.842 450.575 52.242 450.075C51.642 449.558 50.9087 449.3 50.042 449.3ZM63.3385 448.325C63.8051 447.675 64.4301 447.183 65.2135 446.85C66.0135 446.517 66.9301 446.35 67.9635 446.35V449.95C67.5301 449.917 67.2385 449.9 67.0885 449.9C65.9718 449.9 65.0968 450.217 64.4635 450.85C63.8301 451.467 63.5135 452.4 63.5135 453.65V460H59.6135V446.55H63.3385V448.325ZM83.8604 441.45V460H80.1354V458.45C79.1687 459.617 77.7687 460.2 75.9354 460.2C74.6687 460.2 73.5187 459.917 72.4854 459.35C71.4687 458.783 70.6687 457.975 70.0854 456.925C69.502 455.875 69.2104 454.658 69.2104 453.275C69.2104 451.892 69.502 450.675 70.0854 449.625C70.6687 448.575 71.4687 447.767 72.4854 447.2C73.5187 446.633 74.6687 446.35 75.9354 446.35C77.652 446.35 78.9937 446.892 79.9604 447.975V441.45H83.8604ZM76.6104 457C77.5937 457 78.4104 456.667 79.0604 456C79.7104 455.317 80.0354 454.408 80.0354 453.275C80.0354 452.142 79.7104 451.242 79.0604 450.575C78.4104 449.892 77.5937 449.55 76.6104 449.55C75.6104 449.55 74.7854 449.892 74.1354 450.575C73.4854 451.242 73.1604 452.142 73.1604 453.275C73.1604 454.408 73.4854 455.317 74.1354 456C74.7854 456.667 75.6104 457 76.6104 457ZM100.645 453.325C100.645 453.375 100.62 453.725 100.57 454.375H90.3949C90.5783 455.208 91.0116 455.867 91.6949 456.35C92.3783 456.833 93.2283 457.075 94.2449 457.075C94.9449 457.075 95.5616 456.975 96.0949 456.775C96.6449 456.558 97.1533 456.225 97.6199 455.775L99.6949 458.025C98.4283 459.475 96.5783 460.2 94.1449 460.2C92.6283 460.2 91.2866 459.908 90.1199 459.325C88.9533 458.725 88.0533 457.9 87.4199 456.85C86.7866 455.8 86.4699 454.608 86.4699 453.275C86.4699 451.958 86.7783 450.775 87.3949 449.725C88.0283 448.658 88.8866 447.833 89.9699 447.25C91.0699 446.65 92.2949 446.35 93.6449 446.35C94.9616 446.35 96.1533 446.633 97.2199 447.2C98.2866 447.767 99.1199 448.583 99.7199 449.65C100.337 450.7 100.645 451.925 100.645 453.325ZM93.6699 449.3C92.7866 449.3 92.0449 449.55 91.4449 450.05C90.8449 450.55 90.4783 451.233 90.3449 452.1H96.9699C96.8366 451.25 96.4699 450.575 95.8699 450.075C95.2699 449.558 94.5366 449.3 93.6699 449.3ZM116.941 441.45V460H113.216V458.45C112.25 459.617 110.85 460.2 109.016 460.2C107.75 460.2 106.6 459.917 105.566 459.35C104.55 458.783 103.75 457.975 103.166 456.925C102.583 455.875 102.291 454.658 102.291 453.275C102.291 451.892 102.583 450.675 103.166 449.625C103.75 448.575 104.55 447.767 105.566 447.2C106.6 446.633 107.75 446.35 109.016 446.35C110.733 446.35 112.075 446.892 113.041 447.975V441.45H116.941ZM109.691 457C110.675 457 111.491 456.667 112.141 456C112.791 455.317 113.116 454.408 113.116 453.275C113.116 452.142 112.791 451.242 112.141 450.575C111.491 449.892 110.675 449.55 109.691 449.55C108.691 449.55 107.866 449.892 107.216 450.575C106.566 451.242 106.241 452.142 106.241 453.275C106.241 454.408 106.566 455.317 107.216 456C107.866 456.667 108.691 457 109.691 457ZM126.951 460.2C125.534 460.2 124.259 459.908 123.126 459.325C122.009 458.725 121.134 457.9 120.501 456.85C119.868 455.8 119.551 454.608 119.551 453.275C119.551 451.942 119.868 450.75 120.501 449.7C121.134 448.65 122.009 447.833 123.126 447.25C124.259 446.65 125.534 446.35 126.951 446.35C128.368 446.35 129.634 446.65 130.751 447.25C131.868 447.833 132.743 448.65 133.376 449.7C134.009 450.75 134.326 451.942 134.326 453.275C134.326 454.608 134.009 455.8 133.376 456.85C132.743 457.9 131.868 458.725 130.751 459.325C129.634 459.908 128.368 460.2 126.951 460.2ZM126.951 457C127.951 457 128.768 456.667 129.401 456C130.051 455.317 130.376 454.408 130.376 453.275C130.376 452.142 130.051 451.242 129.401 450.575C128.768 449.892 127.951 449.55 126.951 449.55C125.951 449.55 125.126 449.892 124.476 450.575C123.826 451.242 123.501 452.142 123.501 453.275C123.501 454.408 123.826 455.317 124.476 456C125.126 456.667 125.951 457 126.951 457ZM140.658 448.325C141.124 447.675 141.749 447.183 142.533 446.85C143.333 446.517 144.249 446.35 145.283 446.35V449.95C144.849 449.917 144.558 449.9 144.408 449.9C143.291 449.9 142.416 450.217 141.783 450.85C141.149 451.467 140.833 452.4 140.833 453.65V460H136.933V446.55H140.658V448.325ZM160.704 442.5V460H156.654V445.75H153.154V442.5H160.704Z" fill="#00334A"/>
<rect x="288.5" y="469.5" width="183" height="45" fill="#FAFAFA" stroke="#DFDFDF" stroke-width="3"/>
<path d="M326.9 483.5L319.325 501H315.325L307.775 483.5H312.15L317.475 496L322.875 483.5H326.9ZM340.26 494.325C340.26 494.375 340.235 494.725 340.185 495.375H330.01C330.193 496.208 330.627 496.867 331.31 497.35C331.993 497.833 332.843 498.075 333.86 498.075C334.56 498.075 335.177 497.975 335.71 497.775C336.26 497.558 336.768 497.225 337.235 496.775L339.31 499.025C338.043 500.475 336.193 501.2 333.76 501.2C332.243 501.2 330.902 500.908 329.735 500.325C328.568 499.725 327.668 498.9 327.035 497.85C326.402 496.8 326.085 495.608 326.085 494.275C326.085 492.958 326.393 491.775 327.01 490.725C327.643 489.658 328.502 488.833 329.585 488.25C330.685 487.65 331.91 487.35 333.26 487.35C334.577 487.35 335.768 487.633 336.835 488.2C337.902 488.767 338.735 489.583 339.335 490.65C339.952 491.7 340.26 492.925 340.26 494.325ZM333.285 490.3C332.402 490.3 331.66 490.55 331.06 491.05C330.46 491.55 330.093 492.233 329.96 493.1H336.585C336.452 492.25 336.085 491.575 335.485 491.075C334.885 490.558 334.152 490.3 333.285 490.3ZM351.032 487.35C352.698 487.35 354.04 487.85 355.057 488.85C356.09 489.85 356.607 491.333 356.607 493.3V501H352.707V493.9C352.707 492.833 352.473 492.042 352.007 491.525C351.54 490.992 350.865 490.725 349.982 490.725C348.998 490.725 348.215 491.033 347.632 491.65C347.048 492.25 346.757 493.15 346.757 494.35V501H342.857V487.55H346.582V489.125C347.098 488.558 347.74 488.125 348.507 487.825C349.273 487.508 350.115 487.35 351.032 487.35ZM366.788 501.2C365.355 501.2 364.063 500.908 362.913 500.325C361.78 499.725 360.888 498.9 360.238 497.85C359.605 496.8 359.288 495.608 359.288 494.275C359.288 492.942 359.605 491.75 360.238 490.7C360.888 489.65 361.78 488.833 362.913 488.25C364.063 487.65 365.355 487.35 366.788 487.35C368.205 487.35 369.438 487.65 370.488 488.25C371.555 488.833 372.33 489.675 372.813 490.775L369.788 492.4C369.088 491.167 368.08 490.55 366.763 490.55C365.747 490.55 364.905 490.883 364.238 491.55C363.572 492.217 363.238 493.125 363.238 494.275C363.238 495.425 363.572 496.333 364.238 497C364.905 497.667 365.747 498 366.763 498C368.097 498 369.105 497.383 369.788 496.15L372.813 497.8C372.33 498.867 371.555 499.7 370.488 500.3C369.438 500.9 368.205 501.2 366.788 501.2ZM388.063 494.325C388.063 494.375 388.038 494.725 387.988 495.375H377.813C377.996 496.208 378.43 496.867 379.113 497.35C379.796 497.833 380.646 498.075 381.663 498.075C382.363 498.075 382.98 497.975 383.513 497.775C384.063 497.558 384.571 497.225 385.038 496.775L387.113 499.025C385.846 500.475 383.996 501.2 381.563 501.2C380.046 501.2 378.705 500.908 377.538 500.325C376.371 499.725 375.471 498.9 374.838 497.85C374.205 496.8 373.888 495.608 373.888 494.275C373.888 492.958 374.196 491.775 374.813 490.725C375.446 489.658 376.305 488.833 377.388 488.25C378.488 487.65 379.713 487.35 381.063 487.35C382.38 487.35 383.571 487.633 384.638 488.2C385.705 488.767 386.538 489.583 387.138 490.65C387.755 491.7 388.063 492.925 388.063 494.325ZM381.088 490.3C380.205 490.3 379.463 490.55 378.863 491.05C378.263 491.55 377.896 492.233 377.763 493.1H384.388C384.255 492.25 383.888 491.575 383.288 491.075C382.688 490.558 381.955 490.3 381.088 490.3ZM404.359 482.45V501H400.634V499.45C399.668 500.617 398.268 501.2 396.434 501.2C395.168 501.2 394.018 500.917 392.984 500.35C391.968 499.783 391.168 498.975 390.584 497.925C390.001 496.875 389.709 495.658 389.709 494.275C389.709 492.892 390.001 491.675 390.584 490.625C391.168 489.575 391.968 488.767 392.984 488.2C394.018 487.633 395.168 487.35 396.434 487.35C398.151 487.35 399.493 487.892 400.459 488.975V482.45H404.359ZM397.109 498C398.093 498 398.909 497.667 399.559 497C400.209 496.317 400.534 495.408 400.534 494.275C400.534 493.142 400.209 492.242 399.559 491.575C398.909 490.892 398.093 490.55 397.109 490.55C396.109 490.55 395.284 490.892 394.634 491.575C393.984 492.242 393.659 493.142 393.659 494.275C393.659 495.408 393.984 496.317 394.634 497C395.284 497.667 396.109 498 397.109 498ZM414.369 501.2C412.952 501.2 411.677 500.908 410.544 500.325C409.427 499.725 408.552 498.9 407.919 497.85C407.286 496.8 406.969 495.608 406.969 494.275C406.969 492.942 407.286 491.75 407.919 490.7C408.552 489.65 409.427 488.833 410.544 488.25C411.677 487.65 412.952 487.35 414.369 487.35C415.786 487.35 417.052 487.65 418.169 488.25C419.286 488.833 420.161 489.65 420.794 490.7C421.427 491.75 421.744 492.942 421.744 494.275C421.744 495.608 421.427 496.8 420.794 497.85C420.161 498.9 419.286 499.725 418.169 500.325C417.052 500.908 415.786 501.2 414.369 501.2ZM414.369 498C415.369 498 416.186 497.667 416.819 497C417.469 496.317 417.794 495.408 417.794 494.275C417.794 493.142 417.469 492.242 416.819 491.575C416.186 490.892 415.369 490.55 414.369 490.55C413.369 490.55 412.544 490.892 411.894 491.575C411.244 492.242 410.919 493.142 410.919 494.275C410.919 495.408 411.244 496.317 411.894 497C412.544 497.667 413.369 498 414.369 498ZM428.076 489.325C428.542 488.675 429.167 488.183 429.951 487.85C430.751 487.517 431.667 487.35 432.701 487.35V490.95C432.267 490.917 431.976 490.9 431.826 490.9C430.709 490.9 429.834 491.217 429.201 491.85C428.567 492.467 428.251 493.4 428.251 494.65V501H424.351V487.55H428.076V489.325ZM449.547 490.625C451.081 490.875 452.256 491.45 453.072 492.35C453.889 493.233 454.297 494.333 454.297 495.65C454.297 496.667 454.031 497.608 453.497 498.475C452.964 499.325 452.147 500.008 451.047 500.525C449.964 501.042 448.631 501.3 447.047 501.3C445.814 501.3 444.597 501.142 443.397 500.825C442.214 500.492 441.206 500.025 440.372 499.425L441.947 496.325C442.614 496.825 443.381 497.217 444.247 497.5C445.131 497.767 446.031 497.9 446.947 497.9C447.964 497.9 448.764 497.708 449.347 497.325C449.931 496.925 450.222 496.367 450.222 495.65C450.222 494.217 449.131 493.5 446.947 493.5H445.097V490.825L448.697 486.75H441.247V483.5H453.497V486.125L449.547 490.625Z" fill="#00334A"/>
<rect x="288" y="395.5" width="183" height="45" fill="#FAFAFA" stroke="#DFDFDF" stroke-width="3"/>
<rect x="288" y="395.5" width="183" height="45" fill="#FAFAFA" stroke="#DFDFDF" stroke-width="3"/>
<path d="M317.15 409.5C318.7 409.5 320.042 409.758 321.175 410.275C322.325 410.792 323.208 411.525 323.825 412.475C324.442 413.425 324.75 414.55 324.75 415.85C324.75 417.133 324.442 418.258 323.825 419.225C323.208 420.175 322.325 420.908 321.175 421.425C320.042 421.925 318.7 422.175 317.15 422.175H313.625V427H309.575V409.5H317.15ZM316.925 418.875C318.142 418.875 319.067 418.617 319.7 418.1C320.333 417.567 320.65 416.817 320.65 415.85C320.65 414.867 320.333 414.117 319.7 413.6C319.067 413.067 318.142 412.8 316.925 412.8H313.625V418.875H316.925ZM340.517 420.325C340.517 420.375 340.492 420.725 340.442 421.375H330.267C330.45 422.208 330.884 422.867 331.567 423.35C332.25 423.833 333.1 424.075 334.117 424.075C334.817 424.075 335.434 423.975 335.967 423.775C336.517 423.558 337.025 423.225 337.492 422.775L339.567 425.025C338.3 426.475 336.45 427.2 334.017 427.2C332.5 427.2 331.159 426.908 329.992 426.325C328.825 425.725 327.925 424.9 327.292 423.85C326.659 422.8 326.342 421.608 326.342 420.275C326.342 418.958 326.65 417.775 327.267 416.725C327.9 415.658 328.759 414.833 329.842 414.25C330.942 413.65 332.167 413.35 333.517 413.35C334.834 413.35 336.025 413.633 337.092 414.2C338.159 414.767 338.992 415.583 339.592 416.65C340.209 417.7 340.517 418.925 340.517 420.325ZM333.542 416.3C332.659 416.3 331.917 416.55 331.317 417.05C330.717 417.55 330.35 418.233 330.217 419.1H336.842C336.709 418.25 336.342 417.575 335.742 417.075C335.142 416.558 334.409 416.3 333.542 416.3ZM346.838 415.325C347.305 414.675 347.93 414.183 348.713 413.85C349.513 413.517 350.43 413.35 351.463 413.35V416.95C351.03 416.917 350.738 416.9 350.588 416.9C349.472 416.9 348.597 417.217 347.963 417.85C347.33 418.467 347.013 419.4 347.013 420.65V427H343.113V413.55H346.838V415.325ZM367.36 408.45V427H363.635V425.45C362.669 426.617 361.269 427.2 359.435 427.2C358.169 427.2 357.019 426.917 355.985 426.35C354.969 425.783 354.169 424.975 353.585 423.925C353.002 422.875 352.71 421.658 352.71 420.275C352.71 418.892 353.002 417.675 353.585 416.625C354.169 415.575 354.969 414.767 355.985 414.2C357.019 413.633 358.169 413.35 359.435 413.35C361.152 413.35 362.494 413.892 363.46 414.975V408.45H367.36ZM360.11 424C361.094 424 361.91 423.667 362.56 423C363.21 422.317 363.535 421.408 363.535 420.275C363.535 419.142 363.21 418.242 362.56 417.575C361.91 416.892 361.094 416.55 360.11 416.55C359.11 416.55 358.285 416.892 357.635 417.575C356.985 418.242 356.66 419.142 356.66 420.275C356.66 421.408 356.985 422.317 357.635 423C358.285 423.667 359.11 424 360.11 424ZM384.145 420.325C384.145 420.375 384.12 420.725 384.07 421.375H373.895C374.078 422.208 374.512 422.867 375.195 423.35C375.878 423.833 376.728 424.075 377.745 424.075C378.445 424.075 379.062 423.975 379.595 423.775C380.145 423.558 380.653 423.225 381.12 422.775L383.195 425.025C381.928 426.475 380.078 427.2 377.645 427.2C376.128 427.2 374.787 426.908 373.62 426.325C372.453 425.725 371.553 424.9 370.92 423.85C370.287 422.8 369.97 421.608 369.97 420.275C369.97 418.958 370.278 417.775 370.895 416.725C371.528 415.658 372.387 414.833 373.47 414.25C374.57 413.65 375.795 413.35 377.145 413.35C378.462 413.35 379.653 413.633 380.72 414.2C381.787 414.767 382.62 415.583 383.22 416.65C383.837 417.7 384.145 418.925 384.145 420.325ZM377.17 416.3C376.287 416.3 375.545 416.55 374.945 417.05C374.345 417.55 373.978 418.233 373.845 419.1H380.47C380.337 418.25 379.97 417.575 379.37 417.075C378.77 416.558 378.037 416.3 377.17 416.3ZM400.441 408.45V427H396.716V425.45C395.75 426.617 394.35 427.2 392.516 427.2C391.25 427.2 390.1 426.917 389.066 426.35C388.05 425.783 387.25 424.975 386.666 423.925C386.083 422.875 385.791 421.658 385.791 420.275C385.791 418.892 386.083 417.675 386.666 416.625C387.25 415.575 388.05 414.767 389.066 414.2C390.1 413.633 391.25 413.35 392.516 413.35C394.233 413.35 395.575 413.892 396.541 414.975V408.45H400.441ZM393.191 424C394.175 424 394.991 423.667 395.641 423C396.291 422.317 396.616 421.408 396.616 420.275C396.616 419.142 396.291 418.242 395.641 417.575C394.991 416.892 394.175 416.55 393.191 416.55C392.191 416.55 391.366 416.892 390.716 417.575C390.066 418.242 389.741 419.142 389.741 420.275C389.741 421.408 390.066 422.317 390.716 423C391.366 423.667 392.191 424 393.191 424ZM410.451 427.2C409.034 427.2 407.759 426.908 406.626 426.325C405.509 425.725 404.634 424.9 404.001 423.85C403.368 422.8 403.051 421.608 403.051 420.275C403.051 418.942 403.368 417.75 404.001 416.7C404.634 415.65 405.509 414.833 406.626 414.25C407.759 413.65 409.034 413.35 410.451 413.35C411.868 413.35 413.134 413.65 414.251 414.25C415.368 414.833 416.243 415.65 416.876 416.7C417.509 417.75 417.826 418.942 417.826 420.275C417.826 421.608 417.509 422.8 416.876 423.85C416.243 424.9 415.368 425.725 414.251 426.325C413.134 426.908 411.868 427.2 410.451 427.2ZM410.451 424C411.451 424 412.268 423.667 412.901 423C413.551 422.317 413.876 421.408 413.876 420.275C413.876 419.142 413.551 418.242 412.901 417.575C412.268 416.892 411.451 416.55 410.451 416.55C409.451 416.55 408.626 416.892 407.976 417.575C407.326 418.242 407.001 419.142 407.001 420.275C407.001 421.408 407.326 422.317 407.976 423C408.626 423.667 409.451 424 410.451 424ZM424.158 415.325C424.624 414.675 425.249 414.183 426.033 413.85C426.833 413.517 427.749 413.35 428.783 413.35V416.95C428.349 416.917 428.058 416.9 427.908 416.9C426.791 416.9 425.916 417.217 425.283 417.85C424.649 418.467 424.333 419.4 424.333 420.65V427H420.433V413.55H424.158V415.325ZM453.479 423.325H450.629V427H446.679V423.325H437.254V420.6L445.504 409.5H449.754L442.104 420.025H446.804V416.75H450.629V420.025H453.479V423.325Z" fill="#00334A"/>
<rect x="553" y="432.5" width="183" height="45" fill="#FAFAFA" stroke="#DFDFDF" stroke-width="3"/>
<rect x="553" y="432.5" width="183" height="45" fill="#FAFAFA" stroke="#DFDFDF" stroke-width="3"/>
<path d="M591.4 446.5L583.825 464H579.825L572.275 446.5H576.65L581.975 459L587.375 446.5H591.4ZM604.76 457.325C604.76 457.375 604.735 457.725 604.685 458.375H594.51C594.693 459.208 595.127 459.867 595.81 460.35C596.493 460.833 597.343 461.075 598.36 461.075C599.06 461.075 599.677 460.975 600.21 460.775C600.76 460.558 601.268 460.225 601.735 459.775L603.81 462.025C602.543 463.475 600.693 464.2 598.26 464.2C596.743 464.2 595.402 463.908 594.235 463.325C593.068 462.725 592.168 461.9 591.535 460.85C590.902 459.8 590.585 458.608 590.585 457.275C590.585 455.958 590.893 454.775 591.51 453.725C592.143 452.658 593.002 451.833 594.085 451.25C595.185 450.65 596.41 450.35 597.76 450.35C599.077 450.35 600.268 450.633 601.335 451.2C602.402 451.767 603.235 452.583 603.835 453.65C604.452 454.7 604.76 455.925 604.76 457.325ZM597.785 453.3C596.902 453.3 596.16 453.55 595.56 454.05C594.96 454.55 594.593 455.233 594.46 456.1H601.085C600.952 455.25 600.585 454.575 599.985 454.075C599.385 453.558 598.652 453.3 597.785 453.3ZM615.532 450.35C617.198 450.35 618.54 450.85 619.557 451.85C620.59 452.85 621.107 454.333 621.107 456.3V464H617.207V456.9C617.207 455.833 616.973 455.042 616.507 454.525C616.04 453.992 615.365 453.725 614.482 453.725C613.498 453.725 612.715 454.033 612.132 454.65C611.548 455.25 611.257 456.15 611.257 457.35V464H607.357V450.55H611.082V452.125C611.598 451.558 612.24 451.125 613.007 450.825C613.773 450.508 614.615 450.35 615.532 450.35ZM631.288 464.2C629.855 464.2 628.563 463.908 627.413 463.325C626.28 462.725 625.388 461.9 624.738 460.85C624.105 459.8 623.788 458.608 623.788 457.275C623.788 455.942 624.105 454.75 624.738 453.7C625.388 452.65 626.28 451.833 627.413 451.25C628.563 450.65 629.855 450.35 631.288 450.35C632.705 450.35 633.938 450.65 634.988 451.25C636.055 451.833 636.83 452.675 637.313 453.775L634.288 455.4C633.588 454.167 632.58 453.55 631.263 453.55C630.247 453.55 629.405 453.883 628.738 454.55C628.072 455.217 627.738 456.125 627.738 457.275C627.738 458.425 628.072 459.333 628.738 460C629.405 460.667 630.247 461 631.263 461C632.597 461 633.605 460.383 634.288 459.15L637.313 460.8C636.83 461.867 636.055 462.7 634.988 463.3C633.938 463.9 632.705 464.2 631.288 464.2ZM652.563 457.325C652.563 457.375 652.538 457.725 652.488 458.375H642.313C642.496 459.208 642.93 459.867 643.613 460.35C644.296 460.833 645.146 461.075 646.163 461.075C646.863 461.075 647.48 460.975 648.013 460.775C648.563 460.558 649.071 460.225 649.538 459.775L651.613 462.025C650.346 463.475 648.496 464.2 646.063 464.2C644.546 464.2 643.205 463.908 642.038 463.325C640.871 462.725 639.971 461.9 639.338 460.85C638.705 459.8 638.388 458.608 638.388 457.275C638.388 455.958 638.696 454.775 639.313 453.725C639.946 452.658 640.805 451.833 641.888 451.25C642.988 450.65 644.213 450.35 645.563 450.35C646.88 450.35 648.071 450.633 649.138 451.2C650.205 451.767 651.038 452.583 651.638 453.65C652.255 454.7 652.563 455.925 652.563 457.325ZM645.588 453.3C644.705 453.3 643.963 453.55 643.363 454.05C642.763 454.55 642.396 455.233 642.263 456.1H648.888C648.755 455.25 648.388 454.575 647.788 454.075C647.188 453.558 646.455 453.3 645.588 453.3ZM668.859 445.45V464H665.134V462.45C664.168 463.617 662.768 464.2 660.934 464.2C659.668 464.2 658.518 463.917 657.484 463.35C656.468 462.783 655.668 461.975 655.084 460.925C654.501 459.875 654.209 458.658 654.209 457.275C654.209 455.892 654.501 454.675 655.084 453.625C655.668 452.575 656.468 451.767 657.484 451.2C658.518 450.633 659.668 450.35 660.934 450.35C662.651 450.35 663.993 450.892 664.959 451.975V445.45H668.859ZM661.609 461C662.593 461 663.409 460.667 664.059 460C664.709 459.317 665.034 458.408 665.034 457.275C665.034 456.142 664.709 455.242 664.059 454.575C663.409 453.892 662.593 453.55 661.609 453.55C660.609 453.55 659.784 453.892 659.134 454.575C658.484 455.242 658.159 456.142 658.159 457.275C658.159 458.408 658.484 459.317 659.134 460C659.784 460.667 660.609 461 661.609 461ZM678.869 464.2C677.452 464.2 676.177 463.908 675.044 463.325C673.927 462.725 673.052 461.9 672.419 460.85C671.786 459.8 671.469 458.608 671.469 457.275C671.469 455.942 671.786 454.75 672.419 453.7C673.052 452.65 673.927 451.833 675.044 451.25C676.177 450.65 677.452 450.35 678.869 450.35C680.286 450.35 681.552 450.65 682.669 451.25C683.786 451.833 684.661 452.65 685.294 453.7C685.927 454.75 686.244 455.942 686.244 457.275C686.244 458.608 685.927 459.8 685.294 460.85C684.661 461.9 683.786 462.725 682.669 463.325C681.552 463.908 680.286 464.2 678.869 464.2ZM678.869 461C679.869 461 680.686 460.667 681.319 460C681.969 459.317 682.294 458.408 682.294 457.275C682.294 456.142 681.969 455.242 681.319 454.575C680.686 453.892 679.869 453.55 678.869 453.55C677.869 453.55 677.044 453.892 676.394 454.575C675.744 455.242 675.419 456.142 675.419 457.275C675.419 458.408 675.744 459.317 676.394 460C677.044 460.667 677.869 461 678.869 461ZM692.576 452.325C693.042 451.675 693.667 451.183 694.451 450.85C695.251 450.517 696.167 450.35 697.201 450.35V453.95C696.767 453.917 696.476 453.9 696.326 453.9C695.209 453.9 694.334 454.217 693.701 454.85C693.067 455.467 692.751 456.4 692.751 457.65V464H688.851V450.55H692.576V452.325ZM711.872 453.075C714.339 453.075 716.156 453.567 717.322 454.55C718.506 455.533 719.097 456.85 719.097 458.5C719.097 459.567 718.831 460.542 718.297 461.425C717.764 462.292 716.947 462.992 715.847 463.525C714.764 464.042 713.422 464.3 711.822 464.3C710.589 464.3 709.372 464.142 708.172 463.825C706.989 463.492 705.981 463.025 705.147 462.425L706.747 459.325C707.414 459.825 708.181 460.217 709.047 460.5C709.914 460.767 710.806 460.9 711.722 460.9C712.739 460.9 713.539 460.7 714.122 460.3C714.706 459.9 714.997 459.342 714.997 458.625C714.997 457.875 714.689 457.308 714.072 456.925C713.472 456.542 712.422 456.35 710.922 456.35H706.447L707.347 446.5H718.022V449.75H710.722L710.447 453.075H711.872Z" fill="#00334A"/>
<line x1="183" y1="453.5" x2="244" y2="453.5" stroke="#DFDFDF" stroke-width="5"/>
<line x1="247" y1="493.5" x2="287" y2="493.5" stroke="#DFDFDF" stroke-width="5"/>
<line x1="472" y1="491.5" x2="512" y2="491.5" stroke="#DFDFDF" stroke-width="5"/>
<path d="M472.5 420H512.5" stroke="#DFDFDF" stroke-width="5"/>
<line x1="186" y1="528.5" x2="247" y2="528.5" stroke="#DFDFDF" stroke-width="5"/>
<path d="M510 493.5L510 418.5M244 526L244 451" stroke="#DFDFDF" stroke-width="5"/>
<path d="M309.54 364.36C307.4 364.36 305.46 363.9 303.72 362.98C302 362.04 300.64 360.75 299.64 359.11C298.66 357.45 298.17 355.58 298.17 353.5C298.17 351.42 298.66 349.56 299.64 347.92C300.64 346.26 302 344.97 303.72 344.05C305.46 343.11 307.41 342.64 309.57 342.64C311.39 342.64 313.03 342.96 314.49 343.6C315.97 344.24 317.21 345.16 318.21 346.36L315.09 349.24C313.67 347.6 311.91 346.78 309.81 346.78C308.51 346.78 307.35 347.07 306.33 347.65C305.31 348.21 304.51 349 303.93 350.02C303.37 351.04 303.09 352.2 303.09 353.5C303.09 354.8 303.37 355.96 303.93 356.98C304.51 358 305.31 358.8 306.33 359.38C307.35 359.94 308.51 360.22 309.81 360.22C311.91 360.22 313.67 359.39 315.09 357.73L318.21 360.61C317.21 361.83 315.97 362.76 314.49 363.4C313.01 364.04 311.36 364.36 309.54 364.36ZM330.972 347.62C332.972 347.62 334.582 348.22 335.802 349.42C337.042 350.62 337.662 352.4 337.662 354.76V364H332.982V355.48C332.982 354.2 332.702 353.25 332.142 352.63C331.582 351.99 330.772 351.67 329.712 351.67C328.532 351.67 327.592 352.04 326.892 352.78C326.192 353.5 325.842 354.58 325.842 356.02V364H321.162V341.74H325.842V349.54C326.462 348.92 327.212 348.45 328.092 348.13C328.972 347.79 329.932 347.62 330.972 347.62ZM348.414 347.62C350.914 347.62 352.834 348.22 354.174 349.42C355.514 350.6 356.184 352.39 356.184 354.79V364H351.804V361.99C350.924 363.49 349.284 364.24 346.884 364.24C345.644 364.24 344.564 364.03 343.644 363.61C342.744 363.19 342.054 362.61 341.574 361.87C341.094 361.13 340.854 360.29 340.854 359.35C340.854 357.85 341.414 356.67 342.534 355.81C343.674 354.95 345.424 354.52 347.784 354.52H351.504C351.504 353.5 351.194 352.72 350.574 352.18C349.954 351.62 349.024 351.34 347.784 351.34C346.924 351.34 346.074 351.48 345.234 351.76C344.414 352.02 343.714 352.38 343.134 352.84L341.454 349.57C342.334 348.95 343.384 348.47 344.604 348.13C345.844 347.79 347.114 347.62 348.414 347.62ZM348.054 361.09C348.854 361.09 349.564 360.91 350.184 360.55C350.804 360.17 351.244 359.62 351.504 358.9V357.25H348.294C346.374 357.25 345.414 357.88 345.414 359.14C345.414 359.74 345.644 360.22 346.104 360.58C346.584 360.92 347.234 361.09 348.054 361.09ZM376.147 347.86L369.337 364H364.507L357.727 347.86H362.557L367.027 358.84L371.647 347.86H376.147ZM393.427 355.99C393.427 356.05 393.397 356.47 393.337 357.25H381.127C381.347 358.25 381.867 359.04 382.687 359.62C383.507 360.2 384.527 360.49 385.747 360.49C386.587 360.49 387.327 360.37 387.967 360.13C388.627 359.87 389.237 359.47 389.797 358.93L392.287 361.63C390.767 363.37 388.547 364.24 385.627 364.24C383.807 364.24 382.197 363.89 380.797 363.19C379.397 362.47 378.317 361.48 377.557 360.22C376.797 358.96 376.417 357.53 376.417 355.93C376.417 354.35 376.787 352.93 377.527 351.67C378.287 350.39 379.317 349.4 380.617 348.7C381.937 347.98 383.407 347.62 385.027 347.62C386.607 347.62 388.037 347.96 389.317 348.64C390.597 349.32 391.597 350.3 392.317 351.58C393.057 352.84 393.427 354.31 393.427 355.99ZM385.057 351.16C383.997 351.16 383.107 351.46 382.387 352.06C381.667 352.66 381.227 353.48 381.067 354.52H389.017C388.857 353.5 388.417 352.69 387.697 352.09C386.977 351.47 386.097 351.16 385.057 351.16ZM405.369 343H410.229V364H405.369V343ZM424.693 347.62C426.693 347.62 428.303 348.22 429.523 349.42C430.763 350.62 431.383 352.4 431.383 354.76V364H426.703V355.48C426.703 354.2 426.423 353.25 425.863 352.63C425.303 351.99 424.493 351.67 423.433 351.67C422.253 351.67 421.313 352.04 420.613 352.78C419.913 353.5 419.563 354.58 419.563 356.02V364H414.883V347.86H419.353V349.75C419.973 349.07 420.743 348.55 421.663 348.19C422.583 347.81 423.593 347.62 424.693 347.62ZM440.755 348.22H444.895V351.82H440.875V364H436.195V351.82H433.705V348.22H436.195V347.5C436.195 345.66 436.735 344.2 437.815 343.12C438.915 342.04 440.455 341.5 442.435 341.5C443.135 341.5 443.795 341.58 444.415 341.74C445.055 341.88 445.585 342.09 446.005 342.37L444.775 345.76C444.235 345.38 443.605 345.19 442.885 345.19C441.465 345.19 440.755 345.97 440.755 347.53V348.22ZM462.831 355.99C462.831 356.05 462.801 356.47 462.741 357.25H450.531C450.751 358.25 451.271 359.04 452.091 359.62C452.911 360.2 453.931 360.49 455.151 360.49C455.991 360.49 456.731 360.37 457.371 360.13C458.031 359.87 458.641 359.47 459.201 358.93L461.691 361.63C460.171 363.37 457.951 364.24 455.031 364.24C453.211 364.24 451.601 363.89 450.201 363.19C448.801 362.47 447.721 361.48 446.961 360.22C446.201 358.96 445.821 357.53 445.821 355.93C445.821 354.35 446.191 352.93 446.931 351.67C447.691 350.39 448.721 349.4 450.021 348.7C451.341 347.98 452.811 347.62 454.431 347.62C456.011 347.62 457.441 347.96 458.721 348.64C460.001 349.32 461.001 350.3 461.721 351.58C462.461 352.84 462.831 354.31 462.831 355.99ZM454.461 351.16C453.401 351.16 452.511 351.46 451.791 352.06C451.071 352.66 450.631 353.48 450.471 354.52H458.421C458.261 353.5 457.821 352.69 457.101 352.09C456.381 351.47 455.501 351.16 454.461 351.16ZM470.417 349.99C470.977 349.21 471.727 348.62 472.667 348.22C473.627 347.82 474.727 347.62 475.967 347.62V351.94C475.447 351.9 475.097 351.88 474.917 351.88C473.577 351.88 472.527 352.26 471.767 353.02C471.007 353.76 470.627 354.88 470.627 356.38V364H465.947V347.86H470.417V349.99ZM478.75 347.86H483.43V364H478.75V347.86ZM481.09 345.61C480.23 345.61 479.53 345.36 478.99 344.86C478.45 344.36 478.18 343.74 478.18 343C478.18 342.26 478.45 341.64 478.99 341.14C479.53 340.64 480.23 340.39 481.09 340.39C481.95 340.39 482.65 340.63 483.19 341.11C483.73 341.59 484 342.19 484 342.91C484 343.69 483.73 344.34 483.19 344.86C482.65 345.36 481.95 345.61 481.09 345.61ZM495.453 364.24C493.753 364.24 492.223 363.89 490.863 363.19C489.523 362.47 488.473 361.48 487.713 360.22C486.953 358.96 486.573 357.53 486.573 355.93C486.573 354.33 486.953 352.9 487.713 351.64C488.473 350.38 489.523 349.4 490.863 348.7C492.223 347.98 493.753 347.62 495.453 347.62C497.153 347.62 498.673 347.98 500.013 348.7C501.353 349.4 502.403 350.38 503.163 351.64C503.923 352.9 504.303 354.33 504.303 355.93C504.303 357.53 503.923 358.96 503.163 360.22C502.403 361.48 501.353 362.47 500.013 363.19C498.673 363.89 497.153 364.24 495.453 364.24ZM495.453 360.4C496.653 360.4 497.633 360 498.393 359.2C499.173 358.38 499.563 357.29 499.563 355.93C499.563 354.57 499.173 353.49 498.393 352.69C497.633 351.87 496.653 351.46 495.453 351.46C494.253 351.46 493.263 351.87 492.483 352.69C491.703 353.49 491.313 354.57 491.313 355.93C491.313 357.29 491.703 358.38 492.483 359.2C493.263 360 494.253 360.4 495.453 360.4ZM511.901 349.99C512.461 349.21 513.211 348.62 514.151 348.22C515.111 347.82 516.211 347.62 517.451 347.62V351.94C516.931 351.9 516.581 351.88 516.401 351.88C515.061 351.88 514.011 352.26 513.251 353.02C512.491 353.76 512.111 354.88 512.111 356.38V364H507.431V347.86H511.901V349.99Z" fill="white"/>
<circle cx="244.5" cy="491.5" r="14.5" fill="#00AFFF"/>
<path d="M247.15 490.625C248.683 490.875 249.858 491.45 250.675 492.35C251.492 493.233 251.9 494.333 251.9 495.65C251.9 496.667 251.633 497.608 251.1 498.475C250.567 499.325 249.75 500.008 248.65 500.525C247.567 501.042 246.233 501.3 244.65 501.3C243.417 501.3 242.2 501.142 241 500.825C239.817 500.492 238.808 500.025 237.975 499.425L239.55 496.325C240.217 496.825 240.983 497.217 241.85 497.5C242.733 497.767 243.633 497.9 244.55 497.9C245.567 497.9 246.367 497.708 246.95 497.325C247.533 496.925 247.825 496.367 247.825 495.65C247.825 494.217 246.733 493.5 244.55 493.5H242.7V490.825L246.3 486.75H238.85V483.5H251.1V486.125L247.15 490.625Z" fill="white"/>
<circle cx="510" cy="454.5" r="14.5" fill="#00AFFF"/>
<path d="M509.475 453.075C511.942 453.075 513.758 453.567 514.925 454.55C516.108 455.533 516.7 456.85 516.7 458.5C516.7 459.567 516.433 460.542 515.9 461.425C515.367 462.292 514.55 462.992 513.45 463.525C512.367 464.042 511.025 464.3 509.425 464.3C508.192 464.3 506.975 464.142 505.775 463.825C504.592 463.492 503.583 463.025 502.75 462.425L504.35 459.325C505.017 459.825 505.783 460.217 506.65 460.5C507.517 460.767 508.408 460.9 509.325 460.9C510.342 460.9 511.142 460.7 511.725 460.3C512.308 459.9 512.6 459.342 512.6 458.625C512.6 457.875 512.292 457.308 511.675 456.925C511.075 456.542 510.025 456.35 508.525 456.35H504.05L504.95 446.5H515.625V449.75H508.325L508.05 453.075H509.475Z" fill="white"/>
<path d="M737.5 453H798.5" stroke="#DFDFDF" stroke-width="5"/>
</svg>
